<svg width="18" height="20" viewBox="0 0 18 20" fill="none" xmlns="http://www.w3.org/2000/svg">
<path fill-rule="evenodd" clip-rule="evenodd" d="M8.63046 0C7.4678 0 6.52533 0.89543 6.52533 2V2.34141C4.07246 3.16508 2.3151 5.38756 2.3151 8V9.5V11.5996L0.612611 13.8237C0.146895 14.432 0.0798885 15.2372 0.439191 15.9076C0.798483 16.5779 1.52331 17 2.3151 17H5.47278C5.47278 18.6569 6.88657 20 8.63046 20C10.3744 20 11.7881 18.6569 11.7881 17H14.9458C15.7377 17 16.4625 16.5779 16.8217 15.9076C17.181 15.2372 17.114 14.432 16.6483 13.8237L14.9458 11.5996V9.5V8C14.9458 5.38756 13.1885 3.16508 10.7356 2.34141V2C10.7356 0.89543 9.79311 0 8.63046 0ZM9.68433 15H9.68306H7.57794H4.91812H2.31514L3.84614 13L4.01763 12.776C4.27931 12.4341 4.42027 12.0223 4.42027 11.5996V9.5V8C4.42027 5.79086 6.30526 4 8.6305 4C10.9557 4 12.8407 5.79086 12.8407 8V9.5V11.5996C12.8407 12.0223 12.9817 12.4341 13.2434 12.776L13.4149 13L14.9459 15H12.3429H9.68433ZM8.6305 18C8.04917 18 7.57793 17.5523 7.57793 17H9.68306C9.68306 17.5523 9.21183 18 8.6305 18Z" fill="url(#paint0_linear)"/>
<defs>
<linearGradient id="paint0_linear" x1="0.363112" y1="13.7218" x2="14.9115" y2="19.8908" gradientUnits="userSpaceOnUse">
<stop stop-color="white"/>
<stop offset="1" stop-color="white"/>
</linearGradient>
</defs>
</svg>

