<svg width="97" height="108" viewBox="0 0 97 108" fill="none" xmlns="http://www.w3.org/2000/svg">
<path fill-rule="evenodd" clip-rule="evenodd" d="M53.6667 0.666504C55.0812 0.666504 56.4377 1.22841 57.4379 2.2286L84.1046 28.8953C85.1048 29.8955 85.6667 31.252 85.6667 32.6665V37.9998C85.6667 40.9454 83.2789 43.3332 80.3334 43.3332H48.3334C45.5982 43.3332 43.344 41.2743 43.0359 38.6218L43 37.9998L42.9947 11.3332H16.3334C13.3879 11.3332 11 13.721 11 16.6665V91.3332C11 94.2787 13.3879 96.6665 16.3334 96.6665H27C29.9456 96.6665 32.3334 99.0543 32.3334 102C32.3334 104.945 29.9456 107.333 27 107.333H16.3334C7.49682 107.333 0.333374 100.17 0.333374 91.3332V16.6665C0.333374 7.82995 7.49682 0.666504 16.3334 0.666504H53.6667ZM62.7713 66.2286L75 78.4532L87.2288 66.2286C89.1514 64.306 92.1766 64.1581 94.2688 65.7849L94.7713 66.2286C96.6939 68.1512 96.8418 71.1764 95.215 73.2686L94.7713 73.7711L82.5467 85.9998L94.7713 98.2286C96.8541 100.311 96.8541 103.688 94.7713 105.771C92.6885 107.854 89.3116 107.854 87.2288 105.771L75 93.5465L62.7713 105.771C60.8487 107.694 57.8235 107.842 55.7312 106.215L55.2288 105.771C53.3062 103.848 53.1583 100.823 54.7851 98.731L55.2288 98.2286L67.4534 85.9998L55.2288 73.7711C53.146 71.6883 53.146 68.3114 55.2288 66.2286C57.3116 64.1458 60.6885 64.1458 62.7713 66.2286ZM53.6614 13.5412L53.6667 32.6665H72.792L53.6614 13.5412Z" fill="#DE1C22"/>
</svg>
