<svg width="16" height="21" viewBox="0 0 16 21" fill="none" xmlns="http://www.w3.org/2000/svg">
<path fill-rule="evenodd" clip-rule="evenodd" d="M8 0.686523C10.6888 0.686523 12.8818 2.80883 12.9954 5.46963L13 5.68652V8.68652C14.6569 8.68652 16 10.0297 16 11.6865V17.6865C16 19.3434 14.6569 20.6865 13 20.6865H3C1.34315 20.6865 0 19.3434 0 17.6865V11.6865C0 10.0297 1.34315 8.68652 3 8.68652H11V5.68652C11 4.08884 9.75108 2.78286 8.17627 2.69162L8 2.68652C6.34315 2.68652 5 4.02967 5 5.68652C5 6.23881 4.55228 6.68652 4 6.68652C3.44772 6.68652 3 6.23881 3 5.68652C3 2.9251 5.23858 0.686523 8 0.686523ZM13 10.6865H3C2.44772 10.6865 2 11.1342 2 11.6865V17.6865C2 18.2388 2.44772 18.6865 3 18.6865H13C13.5523 18.6865 14 18.2388 14 17.6865V11.6865C14 11.1342 13.5523 10.6865 13 10.6865Z" fill="#3620D8"/>
</svg>

