<svg width="20" height="21" viewBox="0 0 20 21" fill="none" xmlns="http://www.w3.org/2000/svg">
<path fill-rule="evenodd" clip-rule="evenodd" d="M10 0.686523C15.5228 0.686523 20 5.16368 20 10.6865C20 16.2094 15.5228 20.6865 10 20.6865C4.47715 20.6865 0 16.2094 0 10.6865C0 5.16368 4.47715 0.686523 10 0.686523ZM10 2.68652C5.58172 2.68652 2 6.26825 2 10.6865C2 15.1048 5.58172 18.6865 10 18.6865C14.4183 18.6865 18 15.1048 18 10.6865C18 6.26825 14.4183 2.68652 10 2.68652ZM10 16.6865C12.2091 16.6865 14 14.8957 14 12.6865H6L6.0049 12.8862C6.10892 15.0026 7.8578 16.6865 10 16.6865ZM6.5 6.68652C7.32843 6.68652 8 7.3581 8 8.18652C8 9.01495 7.32843 9.68652 6.5 9.68652C5.67157 9.68652 5 9.01495 5 8.18652C5 7.3581 5.67157 6.68652 6.5 6.68652ZM15 8.18652C15 7.3581 14.3284 6.68652 13.5 6.68652C12.6716 6.68652 12 7.3581 12 8.18652C12 9.01495 12.6716 9.68652 13.5 9.68652C14.3284 9.68652 15 9.01495 15 8.18652Z" fill="#3620D8"/>
</svg>

