<svg width="20" height="21" viewBox="0 0 20 21" fill="none" xmlns="http://www.w3.org/2000/svg">
<path fill-rule="evenodd" clip-rule="evenodd" d="M17 0.686523C18.5949 0.686523 19.9035 1.9381 19.9949 3.51054L20 3.68652V13.6865C20 15.2815 18.7484 16.59 17.176 16.6814L17 16.6865H13.5L10.8 20.2865C10.611 20.5385 10.315 20.6865 10 20.6865C9.72437 20.6865 9.4633 20.5732 9.27572 20.3761L9.2 20.2865L6.5 16.6865H3C1.40507 16.6865 0.0965357 15.4349 0.00510323 13.8625L0 13.6865V3.68652C0 2.09159 1.25157 0.783059 2.82401 0.691627L3 0.686523H17ZM17 2.68652H3C2.48836 2.68652 2.06466 3.07367 2.00675 3.57014L2 3.68652V13.6865C2 14.1982 2.38715 14.6219 2.88362 14.6798L3 14.6865H7C7.27563 14.6865 7.5367 14.7998 7.72428 14.997L7.8 15.0865L10 18.0195L12.2 15.0865C12.3654 14.866 12.6127 14.7251 12.8829 14.6934L13 14.6865H17C17.5116 14.6865 17.9353 14.2994 17.9933 13.8029L18 13.6865V3.68652C18 3.17488 17.6129 2.75119 17.1164 2.69327L17 2.68652ZM15 9.68652C15.552 9.68652 16 10.1345 16 10.6865C16 11.1991 15.6137 11.622 15.1166 11.6798L15 11.6865H5C4.448 11.6865 4 11.2385 4 10.6865C4 10.174 4.38629 9.75105 4.88343 9.69326L5 9.68652H15ZM15 5.68652C15.552 5.68652 16 6.13452 16 6.68652C16 7.19909 15.6137 7.62199 15.1166 7.67979L15 7.68652H5C4.448 7.68652 4 7.23852 4 6.68652C4 6.17395 4.38629 5.75105 4.88343 5.69326L5 5.68652H15Z" fill="#3620D8"/>
</svg>

