<?xml version="1.0" encoding="utf-8"?>
<!-- Generator: Adobe Illustrator 26.0.1, SVG Export Plug-In . SVG Version: 6.00 Build 0)  -->
<svg version="1.1" id="Layer_1" xmlns="http://www.w3.org/2000/svg" xmlns:xlink="http://www.w3.org/1999/xlink" x="0px" y="0px"
	 viewBox="0 0 400 400" style="enable-background:new 0 0 400 400;" xml:space="preserve">
<style type="text/css">
	.st0{opacity:2.500000e-02;fill:#F97171;}
	.st1{opacity:5.000000e-02;fill:#F97171;}
	.st2{opacity:0.1;fill:#F97171;}
	.st3{opacity:0.15;fill:#F97171;}
	.st4{opacity:0.2;fill:#F97171;}
	.st5{opacity:0.25;fill:#F97171;}
	.st6{opacity:0.3;fill:#F97171;}
	.st7{opacity:0.35;fill:#F97171;}
	.st8{opacity:0.4;fill:#F97171;}
	.st9{opacity:0.45;fill:#F97171;}
	.st10{opacity:0.5;fill:#F97171;}
	.st11{fill:#F97171;}
	.st12{fill:#FFFFFF;}
	.st13{fill:url(#SVGID_1_);}
</style>
<polygon class="st0" points="340.2,281 340.2,119.9 200.7,39.4 61.1,119.9 61.1,281 200.7,361.6 "/>
<polygon class="st1" points="329.5,274.8 329.5,126.1 200.7,51.8 71.9,126.1 71.9,274.8 200.7,349.2 "/>
<polygon class="st2" points="319.6,269.1 319.6,131.8 200.7,63.1 81.7,131.8 81.7,269.1 200.7,337.8 "/>
<polygon class="st3" points="309.5,263.3 309.5,137.7 200.7,74.8 91.8,137.7 91.8,263.3 200.7,326.1 "/>
<polygon class="st4" points="299.3,257.5 299.3,143.5 200.7,86.5 102,143.5 102,257.5 200.7,314.4 "/>
<polygon class="st5" points="289.2,251.6 289.2,149.4 200.7,98.2 112.1,149.4 112.1,251.6 200.7,302.7 "/>
<polygon class="st6" points="280.1,246.4 280.1,154.6 200.7,108.7 121.2,154.6 121.2,246.4 200.7,292.2 "/>
<polygon class="st7" points="270.9,241 270.9,160 200.7,119.4 130.5,160 130.5,241 200.7,281.5 "/>
<polygon class="st8" points="261.8,235.8 261.8,165.2 200.7,129.9 139.6,165.2 139.6,235.8 200.7,271 "/>
<polygon class="st9" points="252.2,230.2 252.2,170.7 200.7,141 149.2,170.7 149.2,230.2 200.7,260 "/>
<polygon class="st10" points="241.4,224.5 241.4,176.5 199.8,152.5 158.3,176.5 158.3,224.5 199.8,248.4 "/>
<path class="st11" d="M342.6,247.4H58.3c-6.6,0-12-5.4-12-12v-69.8c0-6.6,5.4-12,12-12h284.3c6.6,0,12,5.4,12,12v69.8
	C354.6,242,349.2,247.4,342.6,247.4z"/>
<g>
	<path class="st12" d="M178.8,195.4h-13.6v10.6h-7.9v-29h22.5v7h-14.6v4.5h13.6V195.4z"/>
	<path class="st12" d="M208.7,194.1c0,7.9-4.5,12.4-12.9,12.4s-12.9-4.5-12.9-12.4v-17.2h7.9v17c0,3.3,1.9,5.1,5,5.1
		c3,0,5-1.7,5-5.1v-17h7.9V194.1z"/>
	<path class="st12" d="M233.6,185.9c-1.9-1.1-4.8-2.4-8.4-2.4c-2.1,0-3.7,0.6-3.7,1.9c0,1.6,3,1.8,5.9,2.4l0.9,0.2c6,1.2,9,4,9,8.5
		c0,7.3-6.2,10.1-12.4,10.1c-5.2,0-9.9-1.2-13.3-3.6l3.9-6.4c2.3,1.4,5.1,3,9.5,3c2.1,0,3.7-0.6,3.7-2c0-1.5-1.8-1.8-5.4-2.4
		l-1.1-0.2c-6.7-1.1-9.5-4-9.3-9.2c0.1-5.6,4.8-9.3,11.8-9.3c3.8,0,7.2,0.4,12.3,3L233.6,185.9z"/>
	<path class="st12" d="M248.6,205.9h-7.9v-29h7.9V205.9z"/>
	<path class="st12" d="M282.5,191.4c0,8.7-6.4,15.1-15.4,15.1c-9,0-15.3-6.4-15.3-15.1c0-8.7,6.4-15.1,15.3-15.1
		C276.1,176.4,282.5,182.8,282.5,191.4z M259.9,191.4c0,4.4,2.9,7.5,7.2,7.5c4.2,0,7.2-3.1,7.2-7.5c0-4.4-2.9-7.5-7.2-7.5
		C262.9,183.9,259.9,187,259.9,191.4z"/>
	<path class="st12" d="M313.1,205.9h-7.7l-12-16.3v16.3h-7.9v-29h7.7l12,16.3v-16.3h7.9V205.9z"/>
</g>
<g>
	<path class="st12" d="M221.5,223.5h-5.9l-1.7,2.9h-2.3l8-13.2h1.9l2.8,13.2h-2.2L221.5,223.5z M216.5,221.7h4.6l-1.2-5.8
		L216.5,221.7z"/>
	<path class="st12" d="M225.8,221.2c0-4.5,3.7-8.2,8.1-8.2c3,0,5.3,1.9,5.4,4.9h-2.1c-0.3-1.8-1.5-2.9-3.5-2.9c-3.2,0-5.9,2.8-5.9,6
		c0,2.2,1.4,3.6,3.8,3.6c2.1,0,4-1.2,4.9-3.1h2.2c-1.3,3.3-4.1,5.1-7.3,5.1C228,226.6,225.8,224.4,225.8,221.2z"/>
	<path class="st12" d="M250.5,215.1h-3.9l-2.3,11.3h-2.1l2.3-11.3h-3.9l0.4-1.9h9.9L250.5,215.1z"/>
	<path class="st12" d="M253,213.2h2.1l-2.6,13.2h-2.1L253,213.2z"/>
	<path class="st12" d="M269.3,213.2l-7.8,13.2h-1.9l-2.6-13.2h2.2l1.9,10.2l5.9-10.2H269.3z"/>
	<path class="st12" d="M276.2,223.5h-5.9l-1.7,2.9h-2.3l8-13.2h1.9l2.8,13.2h-2.2L276.2,223.5z M271.3,221.7h4.6l-1.2-5.8
		L271.3,221.7z"/>
	<path class="st12" d="M290.3,215.1h-3.9l-2.3,11.3h-2.1l2.3-11.3h-3.9l0.4-1.9h9.9L290.3,215.1z"/>
	<path class="st12" d="M294.4,215.1l-0.7,3.6h5.1l-0.4,1.8h-5.1l-0.8,3.9h5.8l-0.4,1.9h-7.8l2.6-13.2h7.6l-0.4,1.9H294.4z"/>
	<path class="st12" d="M313.3,218.6c0,4.3-3.6,7.8-8,7.8h-4.8l2.6-13.2h4.5C311,213.2,313.3,215.4,313.3,218.6z M311.2,218.6
		c0-2.1-1.4-3.5-3.7-3.5h-2.6l-1.9,9.4h2.4C308.5,224.5,311.2,221.7,311.2,218.6z"/>
</g>
<path class="st12" d="M130.6,190.3H88.8c-3.7,0-6.7-3-6.7-6.7v0c0-3.7,3-6.7,6.7-6.7h41.7c3.7,0,6.7,3,6.7,6.7v0
	C137.3,187.3,134.3,190.3,130.6,190.3z"/>
<linearGradient id="SVGID_1_" gradientUnits="userSpaceOnUse" x1="95.8794" y1="196.9374" x2="113.4445" y2="227.3611">
	<stop  offset="2.149471e-03" style="stop-color:#FFFFFF;stop-opacity:0.1"/>
	<stop  offset="1.950781e-02" style="stop-color:#FFFFFF;stop-opacity:0.1157"/>
	<stop  offset="1" style="stop-color:#FFFFFF"/>
</linearGradient>
<path class="st13" d="M104.1,224.9l-10.6-19c-1.8-3.2-0.6-7.3,2.6-9.1l0,0c3.2-1.8,7.3-0.6,9.1,2.6l10.6,19c1.8,3.2,0.6,7.3-2.6,9.1
	h0C110,229.3,105.9,228.1,104.1,224.9z"/>
<path class="st12" d="M119.9,209.4H99.4c-3.7,0-6.7-3-6.7-6.7v0c0-3.7,3-6.7,6.7-6.7h20.5c3.7,0,6.7,3,6.7,6.7v0
	C126.6,206.4,123.6,209.4,119.9,209.4z"/>
</svg>
