<?xml version="1.0" encoding="utf-8"?>
<!-- Generator: Adobe Illustrator 26.0.1, SVG Export Plug-In . SVG Version: 6.00 Build 0)  -->
<svg version="1.1" id="Layer_1" xmlns="http://www.w3.org/2000/svg" xmlns:xlink="http://www.w3.org/1999/xlink" x="0px" y="0px"
	 viewBox="0 0 210 70" style="enable-background:new 0 0 210 70;" xml:space="preserve">
<style type="text/css">
	.st0{fill:#4C4C4E;}
	.st1{fill:#FFFFFF;}
	.st2{fill:url(#SVGID_1_);}
</style>
<path class="st0" d="M197.2,67H12.6c-6.6,0-12-5.4-12-12V15.5c0-6.6,5.4-12,12-12h184.7c6.6,0,12,5.4,12,12V55
	C209.2,61.6,203.9,67,197.2,67z"/>
<path class="st1" d="M57.6,28.4H29.3c-2.5,0-4.5-2-4.5-4.5l0,0c0-2.5,2-4.5,4.5-4.5h28.3c2.5,0,4.5,2,4.5,4.5l0,0
	C62.1,26.3,60.1,28.4,57.6,28.4z"/>
<linearGradient id="SVGID_1_" gradientUnits="userSpaceOnUse" x1="34.1271" y1="37.1453" x2="46.0159" y2="16.5534" gradientTransform="matrix(1 0 0 -1 0 70)">
	<stop  offset="2.149471e-03" style="stop-color:#FFFFFF;stop-opacity:0.1"/>
	<stop  offset="1.950781e-02" style="stop-color:#FFFFFF;stop-opacity:0.1157"/>
	<stop  offset="1" style="stop-color:#FFFFFF"/>
</linearGradient>
<path class="st2" d="M39.7,51.8L32.5,39c-1.2-2.2-0.4-5,1.8-6.2l0,0c2.2-1.2,5-0.4,6.2,1.8l7.2,12.8c1.2,2.2,0.4,5-1.8,6.2l0,0
	C43.7,54.8,40.9,54,39.7,51.8z"/>
<path class="st1" d="M50.4,41.3H36.5c-2.5,0-4.5-2-4.5-4.5l0,0c0-2.5,2-4.5,4.5-4.5h13.9c2.5,0,4.5,2,4.5,4.5l0,0
	C54.9,39.2,52.9,41.3,50.4,41.3z"/>
<g>
	<path class="st1" d="M90.1,46.1H81v7.1h-5.3V33.9h15.1v4.8H81v3h9.1C90.1,41.6,90.1,46.1,90.1,46.1z"/>
	<path class="st1" d="M110.1,45.4c0,5.4-3.1,8.3-8.6,8.3c-5.6,0-8.6-3-8.6-8.3V33.9h5.4v11.4c0,2.3,1.3,3.4,3.4,3.4
		c2.1,0,3.4-1.2,3.4-3.4V33.9h5.4v11.6C110.5,45.4,110.1,45.4,110.1,45.4z"/>
	<path class="st1" d="M126.9,39.8c-1.3-0.7-3.2-1.6-5.7-1.6c-1.4,0-2.5,0.4-2.5,1.3c0,1.1,2,1.2,4,1.6l0.6,0.1c4.1,0.8,6,2.7,6,5.8
		c0,5-4.2,6.7-8.3,6.7c-3.5,0-6.6-0.8-8.9-2.4l2.6-4.4c1.6,0.9,3.4,2,6.3,2c1.4,0,2.5-0.4,2.5-1.4c0-1-1.2-1.2-3.7-1.6l-0.7-0.1
		c-4.5-0.8-6.3-2.7-6.2-6.1c0.1-3.8,3.3-6.2,7.9-6.2c2.6,0,4.9,0.3,8.2,2.1L126.9,39.8z"/>
	<path class="st1" d="M136.9,53.3h-5.3V33.9h5.3V53.3z"/>
	<path class="st1" d="M159.6,43.5c0,5.9-4.3,10.1-10.3,10.1S139,49.3,139,43.5s4.3-10.1,10.3-10.1C155.2,33.5,159.6,37.7,159.6,43.5
		z M144.4,43.5c0,3,2,5.1,4.8,5.1c2.9,0,4.8-2.1,4.8-5.1c0-3-2-5.1-4.8-5.1C146.4,38.5,144.4,40.5,144.4,43.5z"/>
	<path class="st1" d="M180.1,53.3h-5.2l-8-11v11h-5.3V33.9h5.2l8,11v-11h5.3V53.3z"/>
</g>
<g>
	<path class="st1" d="M82.5,26.4h-3.7l-1,1.8h-2.1l5.4-9h1.8l1.9,9h-2L82.5,26.4z M79.7,24.9h2.5l-0.6-3.4L79.7,24.9z"/>
	<path class="st1" d="M85.7,24.5c0-3.1,2.5-5.5,5.5-5.5c2.2,0,3.7,1.5,3.8,3.6h-1.9c-0.2-1.1-0.9-1.8-2.1-1.8
		c-1.9,0-3.4,1.7-3.4,3.6c0,1.3,0.9,2.2,2.3,2.2c1.3,0,2.4-0.7,2.9-1.9h1.9c-0.8,2.4-2.8,3.7-5,3.7C87.3,28.4,85.7,26.7,85.7,24.5z"
		/>
	<path class="st1" d="M102.6,20.9h-2.5l-1.5,7.3h-1.9l1.5-7.3h-2.6l0.3-1.6h6.9L102.6,20.9z"/>
	<path class="st1" d="M104.2,19.2h1.9l-1.8,9h-1.9L104.2,19.2z"/>
	<path class="st1" d="M115.9,19.2l-5.3,9h-1.8l-1.7-9h2l1.1,6.4l3.6-6.4H115.9z"/>
	<path class="st1" d="M120.3,26.4h-3.7l-1,1.8h-2.1l5.4-9h1.8l1.9,9h-2L120.3,26.4z M117.5,24.9h2.5l-0.6-3.4L117.5,24.9z"/>
	<path class="st1" d="M130.2,20.9h-2.5l-1.5,7.3h-1.8l1.5-7.3h-2.6l0.3-1.6h6.9L130.2,20.9z"/>
	<path class="st1" d="M133.4,20.9l-0.4,2h3.2l-0.3,1.6h-3.2l-0.4,2.1h3.7l-0.3,1.7h-5.5l1.8-9h5.4l-0.3,1.7
		C137.1,20.9,133.4,20.9,133.4,20.9z"/>
</g>
</svg>
