<svg width="46" height="45" viewBox="0 0 46 45" fill="none" xmlns="http://www.w3.org/2000/svg">
<path fill-rule="evenodd" clip-rule="evenodd" d="M2.25 0H43.7045C44.9472 0 45.9545 1.00736 45.9545 2.25V6.88636C45.9545 8.129 44.9472 9.13636 43.7045 9.13636H42.8864V33.75H44.4545C45.283 33.75 45.9545 34.4216 45.9545 35.25C45.9545 36.0297 45.3597 36.6704 44.599 36.7431L44.4545 36.75H41.3864H24.4773V40.0756C26.2211 40.5298 27.5455 41.7687 27.5455 43.4318C27.5455 44.2602 26.8739 44.9318 26.0455 44.9318C25.217 44.9318 24.5455 44.2602 24.5455 43.4318C24.5455 43.2898 23.9404 42.8864 22.9773 42.8864C22.0142 42.8864 21.4091 43.2898 21.4091 43.4318C21.4091 44.2602 20.7375 44.9318 19.9091 44.9318C19.0807 44.9318 18.4091 44.2602 18.4091 43.4318C18.4091 41.7687 19.7334 40.5298 21.4773 40.0756V36.75H4.56818H1.5C0.671573 36.75 0 36.0784 0 35.25C0 34.4703 0.594888 33.8296 1.35554 33.7569L1.5 33.75H3.06818V9.13636H2.25C1.00736 9.13636 0 8.129 0 6.88636V2.25C0 1.00736 1.00736 0 2.25 0ZM6.069 9.13636V33.749H39.887V9.13636H6.069ZM42.955 6.136V3H3V6.136H42.955ZM13.7352 14.3413C11.9062 14.8402 10.489 16.4225 10.2899 18.4162C10.2801 18.515 10.28 18.6145 10.2898 18.7133C10.5434 21.2688 12.7991 23.149 15.3584 22.9381L15.5032 22.9326C16.2696 22.9357 16.9365 23.4548 17.1368 24.1852L17.168 24.321L17.137 24.4585C16.9371 25.196 16.2611 25.7197 15.4841 25.7155C15.4031 25.702 15.32 25.695 15.2352 25.695C15.1789 25.695 15.1232 25.6981 15.0684 25.7042L15.0272 25.7036C14.3619 25.6685 13.7488 25.3174 13.3827 24.7528L13.2983 24.6353C12.8235 24.0366 11.9622 23.8861 11.308 24.3103C10.6129 24.761 10.4148 25.6898 10.8655 26.3849L11.0015 26.5842C11.677 27.5254 12.6452 28.1972 13.7352 28.5096V29.1116L13.7421 29.2561C13.8148 30.0167 14.4555 30.6116 15.2352 30.6116C16.0637 30.6116 16.7352 29.94 16.7352 29.1116V28.5494C18.5657 28.0477 19.9816 26.4602 20.1748 24.4636C20.1843 24.3659 20.1841 24.2675 20.1744 24.1698C19.9193 21.6194 17.6697 19.7423 15.1148 19.948L14.969 19.9539C14.197 19.9524 13.5279 19.4326 13.3276 18.7009L13.297 18.564L13.3277 18.4305C13.5399 17.6566 14.2756 17.1197 15.1009 17.1813C15.1451 17.1853 15.1899 17.1873 15.2352 17.1873C15.2557 17.1873 15.2761 17.1869 15.2964 17.186L15.4419 17.189C16.107 17.2247 16.7198 17.5758 17.086 18.1401L17.1704 18.2576C17.6454 18.8561 18.5068 19.0064 19.1608 18.5819C19.8558 18.131 20.0536 17.2021 19.6026 16.5071L19.4667 16.3081C18.7915 15.3678 17.8242 14.6965 16.7352 14.3837V13.7707L16.7284 13.6262C16.6557 12.8656 16.0149 12.2707 15.2352 12.2707C14.4068 12.2707 13.7352 12.9423 13.7352 13.7707V14.3413ZM26.0455 21.4773C26.8251 21.4773 27.4659 22.0722 27.5386 22.8328L27.5455 22.9773V29.1136C27.5455 29.9421 26.8739 30.6136 26.0455 30.6136C25.2658 30.6136 24.625 30.0187 24.5523 29.2581L24.5455 29.1136V22.9773C24.5455 22.1488 25.217 21.4773 26.0455 21.4773ZM33.6749 16.6964C33.6023 15.9358 32.9615 15.3409 32.1818 15.3409C31.3534 15.3409 30.6818 16.0125 30.6818 16.8409V29.1136L30.6887 29.2581C30.7614 30.0187 31.4021 30.6136 32.1818 30.6136C33.0102 30.6136 33.6818 29.9421 33.6818 29.1136V16.8409L33.6749 16.6964Z" fill="white"/>
</svg>
