<svg width="48" height="48" viewBox="0 0 48 48" fill="none" xmlns="http://www.w3.org/2000/svg">
<path fill-rule="evenodd" clip-rule="evenodd" d="M23.9999 0C24.7796 0 25.4203 0.594888 25.493 1.35554L25.4999 1.5V3H26.9999C27.8283 3 28.4999 3.67157 28.4999 4.5C28.4999 5.2797 27.905 5.92045 27.1443 5.99313L26.9999 6H25.4999V7.5C25.4999 8.32843 24.8283 9 23.9999 9C23.2202 9 22.5794 8.40511 22.5067 7.64446L22.4999 7.5V6H20.9999C20.1715 6 19.4999 5.32843 19.4999 4.5C19.4999 3.7203 20.0948 3.07955 20.8554 3.00687L20.9999 3H22.4999V1.5C22.4999 0.671573 23.1715 0 23.9999 0ZM44.993 8.85554C44.9203 8.09489 44.2796 7.5 43.4999 7.5C42.6715 7.5 41.9999 8.17157 41.9999 9V10.5H40.4999L40.3554 10.5069C39.5948 10.5796 38.9999 11.2203 38.9999 12C38.9999 12.8284 39.6715 13.5 40.4999 13.5H41.9999V15L42.0067 15.1445C42.0794 15.9051 42.7202 16.5 43.4999 16.5C44.3283 16.5 44.9999 15.8284 44.9999 15V13.5H46.4999L46.6443 13.4931C47.405 13.4204 47.9999 12.7797 47.9999 12C47.9999 11.1716 47.3283 10.5 46.4999 10.5H44.9999V9L44.993 8.85554ZM37.4551 13.1362C37.2542 12.3325 36.4398 11.8439 35.6361 12.0448C32.8451 12.7425 30.7021 14.5507 29.1296 17.0779C28.434 18.1958 27.8959 19.3829 27.4916 20.5694C27.3014 21.1274 27.1696 21.5955 27.0875 21.9408L27.029 22.2058C26.8665 23.0182 27.3934 23.8084 28.2057 23.9709C29.018 24.1333 29.8083 23.6065 29.9708 22.7942L29.9892 22.7106L30.1054 22.2621C30.1684 22.0378 30.2434 21.7948 30.3312 21.537C30.6664 20.5534 31.112 19.5704 31.6768 18.6628C32.8697 16.7456 34.414 15.4426 36.3637 14.9552C37.1674 14.7543 37.656 13.9399 37.4551 13.1362ZM6.74988 27C3.02196 27 -0.000117528 30.0221 -0.000117528 33.75C-0.000117528 36.2293 1.33662 38.3965 3.32871 39.57C2.38182 39.8927 1.47488 40.3504 0.637638 40.9386C-0.0402418 41.4148 -0.203732 42.3504 0.272473 43.0282C0.748678 43.7061 1.68425 43.8696 2.36213 43.3934C4.31075 42.0245 6.78467 41.6384 9.05776 42.3484C11.3084 43.0513 13.1094 44.7499 13.9437 46.9525C14.0786 47.378 14.4013 47.7392 14.8523 47.9064C15.0241 47.9701 15.2002 48.0004 15.3732 48.0004C15.5463 48.0007 15.7224 47.9709 15.8943 47.9075C16.3457 47.7413 16.6692 47.3808 16.8051 46.9556C17.9419 43.9733 20.8034 41.9988 23.9999 41.9988C27.2169 41.9988 30.0945 43.9987 31.2163 47.0131C31.2221 47.0289 31.2281 47.0446 31.2344 47.0603C31.3124 47.2542 31.4268 47.4233 31.5667 47.5626C31.7061 47.7018 31.8751 47.8154 32.0689 47.8928C32.0817 47.8979 32.0946 47.9028 32.1076 47.9076C32.3992 48.015 32.7026 48.026 32.9832 47.957C33.054 47.9396 33.1233 47.917 33.1906 47.8896C33.382 47.812 33.549 47.6989 33.6869 47.5608C33.8268 47.4211 33.941 47.2515 34.0186 47.057C34.0249 47.0415 34.0308 47.0258 34.0365 47.0101C34.8606 44.7796 36.6729 43.0575 38.9429 42.3484C41.2157 41.6384 43.6893 42.0245 45.6376 43.3933C46.3154 43.8696 47.251 43.7062 47.7272 43.0283C48.2035 42.3505 48.0401 41.4149 47.3622 40.9387C46.525 40.3504 45.6181 39.8926 44.6712 39.5699C46.6632 38.3964 47.9999 36.2293 47.9999 33.75C47.9999 30.0221 44.9778 27 41.2499 27C37.522 27 34.4999 30.0221 34.4999 33.75C34.4999 36.2231 35.8299 38.3856 37.8137 39.5611C35.7131 40.271 33.9083 41.6093 32.6233 43.3632C31.3224 41.5927 29.5058 40.2662 27.432 39.5636C29.418 38.3885 30.7499 36.2248 30.7499 33.75C30.7499 30.0221 27.7278 27 23.9999 27C20.272 27 17.2499 30.0221 17.2499 33.75C17.2499 36.2248 18.5817 38.3885 20.5678 39.5636C18.4944 40.266 16.6781 41.5921 15.3773 43.3621C14.092 41.6086 12.287 40.2705 10.1864 39.5609C12.17 38.3853 13.4999 36.223 13.4999 33.75C13.4999 30.0221 10.4778 27 6.74988 27ZM6.74988 30C8.82095 30 10.4999 31.6789 10.4999 33.75C10.4999 35.8211 8.82095 37.5 6.74988 37.5C4.67881 37.5 2.99988 35.8211 2.99988 33.75C2.99988 31.6789 4.67881 30 6.74988 30ZM41.2499 30C43.3209 30 44.9999 31.6789 44.9999 33.75C44.9999 35.8211 43.3209 37.5 41.2499 37.5C39.1788 37.5 37.4999 35.8211 37.4999 33.75C37.4999 31.6789 39.1788 30 41.2499 30ZM27.7499 33.75C27.7499 31.6789 26.0709 30 23.9999 30C21.9288 30 20.2499 31.6789 20.2499 33.75C20.2499 35.8211 21.9288 37.5 23.9999 37.5C26.0709 37.5 27.7499 35.8211 27.7499 33.75ZM10.5447 13.1362C10.7456 12.3325 11.56 11.8439 12.3637 12.0448C15.1547 12.7425 17.2977 14.5507 18.8702 17.0779C19.5657 18.1958 20.1039 19.3829 20.5082 20.5694C20.7526 21.2869 20.9007 21.8557 20.9708 22.2058C21.1332 23.0182 20.6064 23.8084 19.7941 23.9709C19.0295 24.1238 18.2845 23.6661 18.0641 22.9345L17.9534 22.48C17.88 22.1981 17.7856 21.8807 17.6685 21.537C17.3334 20.5534 16.8877 19.5704 16.323 18.6628C15.1301 16.7456 13.5858 15.4426 11.6361 14.9552C10.8324 14.7543 10.3437 13.9399 10.5447 13.1362ZM8.99988 12C8.99988 11.1716 8.32831 10.5 7.49988 10.5H5.99988V9L5.99302 8.85554C5.92033 8.09489 5.27958 7.5 4.49988 7.5C3.67146 7.5 2.99988 8.17157 2.99988 9V10.5H1.49988L1.35542 10.5069C0.594771 10.5796 -0.000117528 11.2203 -0.000117528 12C-0.000117528 12.8284 0.671455 13.5 1.49988 13.5H2.99988V15L3.00675 15.1445C3.07943 15.9051 3.72019 16.5 4.49988 16.5C5.32831 16.5 5.99988 15.8284 5.99988 15V13.5H7.49988L7.64434 13.4931C8.40499 13.4204 8.99988 12.7797 8.99988 12ZM25.493 13.3555C25.4203 12.5949 24.7796 12 23.9999 12C23.1715 12 22.4999 12.6716 22.4999 13.5V22.5L22.5067 22.6445C22.5794 23.4051 23.2202 24 23.9999 24C24.8283 24 25.4999 23.3284 25.4999 22.5V13.5L25.493 13.3555Z" fill="url(#paint0_linear)"/>
<defs>
<linearGradient id="paint0_linear" x1="0.436267" y1="32.9326" x2="39.4616" y2="52.5847" gradientUnits="userSpaceOnUse">
<stop stop-color="#543FED"/>
<stop offset="1" stop-color="#462AC8"/>
</linearGradient>
</defs>
</svg>
