<svg width="46" height="46" viewBox="0 0 46 46" fill="none" xmlns="http://www.w3.org/2000/svg">
<path fill-rule="evenodd" clip-rule="evenodd" d="M31.1574 0.00141614L31.0308 0.00742856L30.9051 0.00141614C27.9966 -0.0643133 25.5248 2.16572 25.3163 5.09309L25.3125 5.19968V5.63284L20.9062 5.6328L20.7011 5.64103C18.5272 5.78132 16.8415 7.58781 16.8752 9.76783L16.875 22.8022L16.8778 23.0281C16.9184 24.0057 17.3241 24.9563 18.0222 25.6766C18.774 26.4524 19.8033 26.8975 20.8835 26.9139L28.2188 26.9141L28.3632 26.9072C29.1239 26.8345 29.7188 26.1938 29.7188 25.4141C29.7188 24.5856 29.0472 23.9141 28.2188 23.9141H20.9062L20.7752 23.9027C20.5567 23.8685 20.3412 23.7588 20.1765 23.5888C19.9787 23.3848 19.8702 23.1105 19.8748 22.8264L19.875 9.74468L19.8795 9.62345C19.9292 9.06661 20.3775 8.64141 20.9301 8.63261L26.7921 8.63267C26.7989 8.63276 26.8057 8.6328 26.8125 8.6328L26.8154 8.63267L35.2368 8.63275C35.2412 8.63278 35.2456 8.6328 35.25 8.6328C35.2544 8.6328 35.2588 8.63278 35.2631 8.63275L41.1562 8.6328L41.2685 8.64092C41.7853 8.70749 42.1962 9.16895 42.1877 9.72153L42.1875 16.9766L42.1944 17.121C42.2671 17.8817 42.9078 18.4766 43.6875 18.4766C44.5159 18.4766 45.1875 17.805 45.1875 16.9766V9.74468L45.1856 9.54348C45.1129 7.40917 43.3601 5.66769 41.1801 5.63299L36.75 5.63295V5.19968L36.7462 5.09309L36.7264 4.87487C36.4138 2.05565 33.9932 -0.0626701 31.1574 0.00141614ZM33.7498 5.63292L33.7497 5.26743L33.7371 5.14487C33.5701 3.92047 32.5219 3.00323 31.2862 3.00011L31.124 3.00493H30.9385C29.6334 2.92406 28.4997 3.86723 28.3254 5.14487L28.3118 5.26743L28.3119 5.63287L33.7498 5.63292ZM38.5019 16.8321C38.4292 16.0714 37.7884 15.4766 37.0088 15.4766C36.1803 15.4766 35.5088 16.1481 35.5088 16.9766V17.5748C33.3302 18.0812 31.6406 19.7143 31.6406 21.8103C31.6406 24.3502 34.1241 26.2128 37.0088 26.2128L37.2039 26.2177C38.4854 26.2826 39.375 26.9792 39.375 27.6116C39.375 28.277 38.3929 29.0141 37.0088 29.0141C36.9823 29.0141 36.956 29.0147 36.9298 29.0161C36.0307 29.0277 35.2297 28.638 34.7173 27.9639L34.6244 27.853C34.1063 27.2914 33.2362 27.2055 32.6154 27.6774C31.9559 28.1787 31.8276 29.1197 32.3289 29.7793C33.1276 30.83 34.2563 31.5555 35.5088 31.8586V32.4453L35.5156 32.5898C35.5883 33.3504 36.2291 33.9453 37.0088 33.9453C37.8372 33.9453 38.5088 33.2737 38.5088 32.4453V31.8486C40.6858 31.3414 42.375 29.707 42.375 27.6116C42.375 25.0716 39.8938 23.2128 37.0088 23.2128L36.8137 23.2079C35.5326 23.1427 34.6406 22.4436 34.6406 21.8103C34.6406 21.1455 35.6222 20.4097 37.0088 20.4097C37.0352 20.4097 37.0615 20.409 37.0876 20.4076C37.9852 20.3961 38.7849 20.7851 39.2966 21.4581L39.3894 21.569C39.9077 22.1305 40.7778 22.2163 41.3985 21.7444C42.0579 21.243 42.1861 20.3019 41.6847 19.6425C40.8868 18.5931 39.7596 17.8684 38.5088 17.5654V16.9766L38.5019 16.8321ZM2.99313 26.6627C2.92045 25.9021 2.2797 25.3072 1.5 25.3072C0.671573 25.3072 0 25.9788 0 26.8072V29.6197V40.8697V43.6822L0.00686658 43.8266C0.0795513 44.5873 0.720304 45.1822 1.5 45.1822C2.32843 45.1822 3 44.5106 3 43.6822V42.3697H29.625L29.7695 42.3628C30.5301 42.2901 31.125 41.6494 31.125 40.8697L31.121 40.6297C30.9945 36.8058 27.8547 33.7447 24 33.7447L18.3088 33.7444L18.2806 33.611C17.5421 30.4633 14.7166 28.1197 11.3438 28.1197H3V26.8072L2.99313 26.6627ZM3 31.1197V39.3697L27.8418 39.3694L27.8196 39.309C27.2288 37.8648 25.8428 36.8302 24.2059 36.7497L24 36.7447H16.9688H11.3438C10.5153 36.7447 9.84375 36.0731 9.84375 35.2447C9.84375 34.465 10.4386 33.8242 11.1993 33.7515L11.3438 33.7447H15.1875C14.6112 32.2688 13.2093 31.2063 11.5496 31.1247L11.3438 31.1197H3Z" fill="url(#paint0_linear)"/>
<defs>
<linearGradient id="paint0_linear" x1="0.410932" y1="30.999" x2="37.1476" y2="49.5009" gradientUnits="userSpaceOnUse">
<stop stop-color="#543FED"/>
<stop offset="1" stop-color="#462AC8"/>
</linearGradient>
</defs>
</svg>
