<svg width="46" height="46" viewBox="0 0 46 46" fill="none" xmlns="http://www.w3.org/2000/svg">
<path fill-rule="evenodd" clip-rule="evenodd" d="M4.5 0H40.6875C43.1728 0 45.1875 2.01472 45.1875 4.5V32.25C45.1875 34.7353 43.1728 36.75 40.6875 36.75H28.5832L29.4894 42.1875H32.4375C33.2659 42.1875 33.9375 42.8591 33.9375 43.6875C33.9375 44.4672 33.3426 45.1079 32.582 45.1806L32.4375 45.1875H28.2188H16.9688H12.75C11.9216 45.1875 11.25 44.5159 11.25 43.6875C11.25 42.9078 11.8449 42.2671 12.6055 42.1944L12.75 42.1875H15.6981L16.6043 36.75H4.5C2.01472 36.75 0 34.7353 0 32.25V4.5C0 2.01472 2.01472 0 4.5 0ZM18.375 33.75H26.8125H40.6875C41.5159 33.75 42.1875 33.0784 42.1875 32.25V4.5C42.1875 3.67157 41.5159 3 40.6875 3H4.5C3.67157 3 3 3.67157 3 4.5V32.25C3 33.0784 3.67157 33.75 4.5 33.75H18.375ZM19.6446 36.75L18.7388 42.1871H26.4478L25.5419 36.75H19.6446ZM9.9375 8.4375C10.7172 8.4375 11.3579 9.03239 11.4306 9.79304L11.4375 9.9375V19.6875H16.875V15.5625C16.875 14.7341 17.5466 14.0625 18.375 14.0625H25.3125V9.9375C25.3125 9.10907 25.9841 8.4375 26.8125 8.4375H35.25C36.0784 8.4375 36.75 9.10907 36.75 9.9375V26.8125C36.75 27.6409 36.0784 28.3125 35.25 28.3125H26.8125H18.375H9.9375C9.1578 28.3125 8.51705 27.7176 8.44437 26.957C8.43982 26.9094 8.4375 26.8612 8.4375 26.8125V21.1875V9.9375C8.4375 9.10907 9.10907 8.4375 9.9375 8.4375ZM11.4375 25.3121H16.8748V22.6871H11.4375V25.3121ZM19.875 25.3121H25.3117V17.0621H19.8748V21.1598C19.8749 21.169 19.875 21.1783 19.875 21.1875V25.3121ZM33.7497 25.3121H28.3125V15.5625C28.3125 15.5465 28.3122 15.5305 28.3118 15.5146V11.4371H33.7497V25.3121Z" fill="url(#paint0_linear)"/>
<defs>
<linearGradient id="paint0_linear" x1="0.410932" y1="31.0027" x2="37.1494" y2="49.5032" gradientUnits="userSpaceOnUse">
<stop stop-color="#543FED"/>
<stop offset="1" stop-color="#462AC8"/>
</linearGradient>
</defs>
</svg>
