<?xml version="1.0" encoding="utf-8"?>
<!-- Generator: Adobe Illustrator 26.0.1, SVG Export Plug-In . SVG Version: 6.00 Build 0)  -->
<svg version="1.1" id="Layer_1" xmlns="http://www.w3.org/2000/svg" xmlns:xlink="http://www.w3.org/1999/xlink" x="0px" y="0px"
	 viewBox="0 0 210 70" style="enable-background:new 0 0 210 70;" xml:space="preserve">
<style type="text/css">
	.st0{fill:#F97171;}
	.st1{fill:#FFFFFF;}
	.st2{fill:url(#SVGID_1_);}
</style>
<path class="st0" d="M197.2,67H12.6c-6.6,0-12-5.4-12-12V15.5c0-6.6,5.4-12,12-12h184.7c6.6,0,12,5.4,12,12V55
	C209.2,61.6,203.9,67,197.2,67z"/>
<g>
	<path class="st1" d="M90.2,31.8h-9.2V39h-5.3V19.3h15.2V24h-9.9v3h9.2V31.8z"/>
	<path class="st1" d="M110.5,30.9c0,5.3-3.1,8.4-8.7,8.4c-5.6,0-8.7-3-8.7-8.4V19.3h5.3v11.5c0,2.3,1.3,3.4,3.4,3.4
		c2.1,0,3.4-1.2,3.4-3.4V19.3h5.3V30.9z"/>
	<path class="st1" d="M127.4,25.4c-1.3-0.7-3.2-1.6-5.7-1.6c-1.4,0-2.5,0.4-2.5,1.3c0,1.1,2,1.2,4,1.6l0.6,0.1
		c4.1,0.8,6.1,2.7,6.1,5.8c0,5-4.2,6.8-8.4,6.8c-3.5,0-6.7-0.8-9-2.4l2.6-4.4c1.6,0.9,3.4,2,6.4,2c1.4,0,2.5-0.4,2.5-1.4
		c0-1-1.2-1.2-3.7-1.6l-0.7-0.1c-4.5-0.8-6.4-2.7-6.3-6.2c0.1-3.8,3.3-6.3,8-6.3c2.6,0,4.9,0.3,8.3,2.1L127.4,25.4z"/>
	<path class="st1" d="M137.5,39h-5.3V19.3h5.3V39z"/>
	<path class="st1" d="M160.4,29.1c0,5.9-4.3,10.2-10.4,10.2c-6.1,0-10.4-4.3-10.4-10.2c0-5.9,4.3-10.2,10.4-10.2
		C156.1,18.9,160.4,23.3,160.4,29.1z M145.2,29.1c0,3,2,5.1,4.8,5.1c2.9,0,4.8-2.1,4.8-5.1c0-3-2-5.1-4.8-5.1
		C147.2,24,145.2,26.1,145.2,29.1z"/>
	<path class="st1" d="M181.2,39H176l-8.1-11.1V39h-5.3V19.3h5.2l8.1,11.1V19.3h5.3V39z"/>
</g>
<g>
	<path class="st1" d="M119.1,50.8h-4l-1.2,2h-1.6l5.4-8.9h1.3l1.9,8.9h-1.5L119.1,50.8z M115.8,49.6h3.1l-0.8-3.9L115.8,49.6z"/>
	<path class="st1" d="M122.1,49.2c0-3,2.5-5.5,5.5-5.5c2,0,3.6,1.3,3.7,3.3h-1.4c-0.2-1.2-1-1.9-2.4-1.9c-2.2,0-4,1.9-4,4.1
		c0,1.5,0.9,2.5,2.5,2.5c1.4,0,2.7-0.8,3.3-2.1h1.5c-0.9,2.2-2.8,3.4-4.9,3.4C123.6,52.9,122.1,51.4,122.1,49.2z"/>
	<path class="st1" d="M138.8,45.1h-2.6l-1.5,7.7h-1.4l1.5-7.7h-2.7l0.3-1.3h6.7L138.8,45.1z"/>
	<path class="st1" d="M140.4,43.9h1.4l-1.8,8.9h-1.4L140.4,43.9z"/>
	<path class="st1" d="M151.5,43.9l-5.3,8.9h-1.3l-1.8-8.9h1.5l1.3,6.9l4-6.9H151.5z"/>
	<path class="st1" d="M156.2,50.8h-4l-1.2,2h-1.6l5.4-8.9h1.3l1.9,8.9h-1.5L156.2,50.8z M152.8,49.6h3.1l-0.8-3.9L152.8,49.6z"/>
	<path class="st1" d="M165.7,45.1h-2.6l-1.5,7.7h-1.4l1.5-7.7H159l0.3-1.3h6.7L165.7,45.1z"/>
	<path class="st1" d="M168.5,45.2l-0.5,2.5h3.4l-0.3,1.2h-3.4l-0.5,2.6h3.9l-0.3,1.3h-5.3l1.8-8.9h5.2l-0.3,1.3H168.5z"/>
	<path class="st1" d="M181.3,47.5c0,2.9-2.4,5.3-5.4,5.3h-3.2l1.8-8.9h3C179.7,43.9,181.3,45.4,181.3,47.5z M179.8,47.5
		c0-1.5-1-2.4-2.5-2.4h-1.7l-1.3,6.4h1.6C178.1,51.5,179.8,49.6,179.8,47.5z"/>
</g>
<path class="st1" d="M57.6,28.4H29.3c-2.5,0-4.5-2-4.5-4.5v0c0-2.5,2-4.5,4.5-4.5h28.3c2.5,0,4.5,2,4.5,4.5v0
	C62.1,26.3,60.1,28.4,57.6,28.4z"/>
<linearGradient id="SVGID_1_" gradientUnits="userSpaceOnUse" x1="34.1235" y1="32.8568" x2="46.0123" y2="53.4487">
	<stop  offset="2.149471e-03" style="stop-color:#FFFFFF;stop-opacity:0.1"/>
	<stop  offset="1.950781e-02" style="stop-color:#FFFFFF;stop-opacity:0.1157"/>
	<stop  offset="1" style="stop-color:#FFFFFF"/>
</linearGradient>
<path class="st2" d="M39.7,51.8l-7.2-12.8c-1.2-2.2-0.4-5,1.8-6.2l0,0c2.2-1.2,5-0.4,6.2,1.8l7.2,12.8c1.2,2.2,0.4,5-1.8,6.2l0,0
	C43.7,54.8,40.9,54,39.7,51.8z"/>
<path class="st1" d="M50.4,41.3H36.5c-2.5,0-4.5-2-4.5-4.5v0c0-2.5,2-4.5,4.5-4.5h13.9c2.5,0,4.5,2,4.5,4.5v0
	C54.9,39.2,52.9,41.3,50.4,41.3z"/>
</svg>
