<?xml version="1.0" encoding="utf-8"?>
<!-- Generator: Adobe Illustrator 26.0.1, SVG Export Plug-In . SVG Version: 6.00 Build 0)  -->
<svg version="1.1" id="Layer_1" xmlns="http://www.w3.org/2000/svg" xmlns:xlink="http://www.w3.org/1999/xlink" x="0px" y="0px"
	 viewBox="0 0 350 100" style="enable-background:new 0 0 350 100;" xml:space="preserve">
<style type="text/css">
	.st0{fill:#553FED;}
	.st1{fill:url(#SVGID_1_);}
	.st2{fill:#202022;}
</style>
<path class="st0" d="M69,34.9H11.2c-5.1,0-9.3-4.2-9.3-9.3v0c0-5.1,4.2-9.3,9.3-9.3H69c5.1,0,9.3,4.2,9.3,9.3v0
	C78.3,30.8,74.1,34.9,69,34.9z"/>
<linearGradient id="SVGID_1_" gradientUnits="userSpaceOnUse" x1="21.0068" y1="44.0603" x2="45.3102" y2="86.155">
	<stop  offset="2.149471e-03" style="stop-color:#553FED;stop-opacity:0.1"/>
	<stop  offset="1.950781e-02" style="stop-color:#553FED;stop-opacity:0.1157"/>
	<stop  offset="1" style="stop-color:#553FED"/>
</linearGradient>
<path class="st1" d="M32.4,82.8L17.7,56.5c-2.5-4.5-0.9-10.1,3.6-12.6l0,0c4.5-2.5,10.1-0.9,12.6,3.6l14.6,26.3
	c2.5,4.5,0.9,10.1-3.6,12.6l0,0C40.5,88.8,34.9,87.2,32.4,82.8z"/>
<path class="st0" d="M54.2,61.2H25.8c-5.1,0-9.3-4.2-9.3-9.3v0c0-5.1,4.2-9.3,9.3-9.3h28.4c5.1,0,9.3,4.2,9.3,9.3v0
	C63.5,57.1,59.3,61.2,54.2,61.2z"/>
<g>
	<path class="st2" d="M129.7,43h-19v14.8H99.7V17.1h31.5v9.8h-20.5v6.3h19V43z"/>
	<path class="st2" d="M171.6,41.2c0,11.1-6.3,17.4-18,17.4s-18-6.3-18-17.4V17.1h11.1v23.8c0,4.7,2.7,7.1,7,7.1c4.3,0,7-2.4,7-7.1
		V17.1h11.1V41.2z"/>
	<path class="st2" d="M206.6,29.7c-2.7-1.5-6.7-3.4-11.7-3.4c-3,0-5.2,0.8-5.2,2.6c0,2.3,4.2,2.5,8.3,3.3l1.3,0.3
		c8.4,1.6,12.7,5.7,12.7,11.9c0,10.3-8.7,14.1-17.4,14.1c-7.3,0-13.9-1.7-18.6-5.1l5.4-9c3.2,1.9,7.1,4.2,13.3,4.2
		c3,0,5.1-0.8,5.1-2.8c0-2.1-2.5-2.5-7.6-3.4l-1.5-0.3c-9.4-1.6-13.3-5.6-13.1-12.9c0.2-7.8,6.7-13,16.5-13c5.3,0,10.1,0.6,17.2,4.3
		L206.6,29.7z"/>
	<path class="st2" d="M227.7,57.8h-11.1V17.1h11.1V57.8z"/>
	<path class="st2" d="M275.1,37.4c0,12.2-8.9,21.1-21.5,21.1c-12.6,0-21.5-9-21.5-21.1c0-12.2,8.9-21.1,21.5-21.1
		C266.1,16.3,275.1,25.3,275.1,37.4z M243.5,37.4c0,6.2,4.1,10.5,10,10.5c5.9,0,10-4.3,10-10.5s-4.1-10.5-10-10.5
		C247.6,26.9,243.5,31.2,243.5,37.4z"/>
	<path class="st2" d="M318,57.8h-10.8l-16.8-22.9v22.9h-11.1V17.1h10.8L307,40V17.1H318V57.8z"/>
</g>
<g>
	<path class="st0" d="M177.1,78c0-5.3,4.3-9.3,9.6-9.3c4.2,0,7,2.9,7,6.8c0,5.3-4.2,9.3-9.5,9.3C179.9,84.8,177.1,81.9,177.1,78z
		 M190.4,75.8c0-2.4-1.7-4-4.2-4c-3.4,0-5.9,2.9-5.9,6c0,2.4,1.7,4.1,4.2,4.1C187.9,81.8,190.4,78.9,190.4,75.8z"/>
	<path class="st0" d="M210.7,69.1l-3.1,15.4H205l-5.1-10.1l-2,10.1h-3.2l3.1-15.4h2.9l4.9,9.8l2-9.8H210.7z"/>
	<path class="st0" d="M212.3,76.9h7.2l-0.6,2.9h-7.2L212.3,76.9z"/>
	<path class="st0" d="M236.3,75.4c0,5-4.1,9.1-9.2,9.1h-6l3.1-15.4h5.6C233.7,69.1,236.3,71.7,236.3,75.4z M233.1,75.5
		c0-2.2-1.5-3.5-3.8-3.5h-2.5l-2,9.7h2.5C230.5,81.7,233.1,78.7,233.1,75.5z"/>
	<path class="st0" d="M243,71.9l-0.7,3.4h5.5l-0.6,2.8h-5.5l-0.7,3.6h6.3l-0.6,2.8h-9.4l3.1-15.4h9.2l-0.6,2.8H243z"/>
	<path class="st0" d="M269,69.1l-0.7,15.4h-3.2l0.5-10.2L259,84.4h-0.8l-2.6-10.1l-3.7,10.2h-3.3l5.5-15.4h3.1l2.4,9.5l6.2-9.5H269z
		"/>
	<path class="st0" d="M280.9,81.5h-6.3l-1.7,3h-3.5l9.1-15.4h3l3.2,15.4h-3.3L280.9,81.5z M276.1,78.9h4.3l-1.1-5.9L276.1,78.9z"/>
	<path class="st0" d="M302.7,69.1l-3.1,15.4H297l-5.1-10.1l-2,10.1h-3.2l3.1-15.4h2.9l4.9,9.8l2-9.8H302.7z"/>
	<path class="st0" d="M318.4,75.4c0,5-4.1,9.1-9.2,9.1h-6l3.1-15.4h5.6C315.8,69.1,318.4,71.7,318.4,75.4z M315.2,75.5
		c0-2.2-1.5-3.5-3.8-3.5h-2.5l-2,9.7h2.5C312.6,81.7,315.2,78.7,315.2,75.5z"/>
</g>
</svg>
