<svg width="18" height="17" viewBox="0 0 18 17" fill="none" xmlns="http://www.w3.org/2000/svg">
<path fill-rule="evenodd" clip-rule="evenodd" d="M16.5 6.36301C16.5 5.05329 15.4953 3.97851 14.2154 3.86917L13.6854 2.3184C13.2246 0.970299 11.7344 0.278682 10.409 0.797889L2.44643 3.91735C2.3669 3.94851 2.29484 3.99055 2.2313 4.04111C1.31398 4.41189 0.666687 5.31177 0.666687 6.36301V13.872C0.666687 15.2544 1.78598 16.375 3.16669 16.375H14C15.3808 16.375 16.5 15.2544 16.5 13.872V11.9801C16.9982 11.6916 17.3334 11.1523 17.3334 10.5346V8.86601C17.3334 8.24835 16.9982 7.70909 16.5 7.4206V6.36301ZM14.8334 7.19738V6.36301C14.8334 5.90223 14.4603 5.52868 14 5.52868H3.16669C2.70645 5.52868 2.33335 5.90223 2.33335 6.36301V13.872C2.33335 14.3327 2.70645 14.7064 3.16669 14.7064H14C14.4603 14.7064 14.8334 14.3327 14.8334 13.872V12.2033H14C12.6193 12.2033 11.5 11.0827 11.5 9.70032C11.5 8.318 12.6193 7.19738 14 7.19738H14.8334ZM12.1085 2.85866L12.4507 3.86001L7.16663 3.86002L11.0164 2.35182C11.4581 2.17875 11.9549 2.40929 12.1085 2.85866ZM13.1667 9.70032C13.1667 9.23954 13.5398 8.866 14 8.866H15.6667V10.5346H14C13.5398 10.5346 13.1667 10.1611 13.1667 9.70032Z" fill="url(#GradientPocketBook)"/>
<defs>
<linearGradient id="GradientPocketBook" x1="0.818252" y1="11.4309" x2="14.048" y2="18.4808" gradientUnits="userSpaceOnUse">
<stop stop-color="#543FED"/>
<stop offset="1" stop-color="#462AC8"/>
</linearGradient>
</defs>
</svg>

