<svg width="21" height="20" viewBox="0 0 21 20" fill="none" xmlns="http://www.w3.org/2000/svg">
<path fill-rule="evenodd" clip-rule="evenodd" d="M0.980225 2.5C0.980225 1.11929 2.08843 0 3.45547 0H5.93072C6.47753 0 6.92082 0.44772 6.92082 1C6.92082 1.55228 6.47753 2 5.93072 2H3.45547C3.18207 2 2.96042 2.22386 2.96042 2.5V5C2.96042 5.55228 2.51714 6 1.97032 6C1.42351 6 0.980225 5.55228 0.980225 5V2.5ZM16.8218 9C16.8218 11.7614 14.6054 14 11.8713 14C10.9911 14 10.1647 13.768 9.44844 13.3613L7.12588 15.7071C6.73921 16.0976 6.11232 16.0976 5.72566 15.7071C5.33901 15.3166 5.33901 14.6834 5.72566 14.2929L7.94741 12.0489C7.30367 11.205 6.92082 10.1477 6.92082 9C6.92082 6.23858 9.13725 4 11.8713 4C14.6054 4 16.8218 6.23858 16.8218 9ZM14.8416 9C14.8416 7.34315 13.5118 6 11.8713 6C10.2308 6 8.90102 7.34315 8.90102 9C8.90102 10.6569 10.2308 12 11.8713 12C13.5118 12 14.8416 10.6569 14.8416 9ZM18.307 0C19.674 0 20.7822 1.11929 20.7822 2.5V5C20.7822 5.55228 20.3389 6 19.7921 6C19.2453 6 18.802 5.55228 18.802 5V2.5C18.802 2.22386 18.5803 2 18.307 2H15.8317C15.2849 2 14.8416 1.55228 14.8416 1C14.8416 0.44772 15.2849 0 15.8317 0H18.307ZM0.980225 17.5C0.980225 18.8807 2.08843 20 3.45547 20H5.93072C6.47753 20 6.92082 19.5523 6.92082 19C6.92082 18.4477 6.47753 18 5.93072 18H3.45547C3.18207 18 2.96042 17.7761 2.96042 17.5V15C2.96042 14.4477 2.51714 14 1.97032 14C1.42351 14 0.980225 14.4477 0.980225 15V17.5ZM18.307 20C19.674 20 20.7822 18.8807 20.7822 17.5V15C20.7822 14.4477 20.3389 14 19.7921 14C19.2453 14 18.802 14.4477 18.802 15V17.5C18.802 17.7761 18.5803 18 18.307 18H15.8317C15.2849 18 14.8416 18.4477 14.8416 19C14.8416 19.5523 15.2849 20 15.8317 20H18.307Z" fill="url(#GradientSearch)"/>
<defs>
<linearGradient id="GradientSearch" x1="1.1603" y1="13.7218" x2="17.3242" y2="21.7809" gradientUnits="userSpaceOnUse">
<stop stop-color="#543FED"/>
<stop offset="1" stop-color="#462AC8"/>
</linearGradient>
</defs>
</svg>

