<svg width="18" height="20" viewBox="0 0 18 20" fill="none" xmlns="http://www.w3.org/2000/svg">
  <path fillRule="evenodd" clipRule="evenodd" d="M4 1C4 0.44772 4.44772 0 5 0C5.55228 0 6 0.44772 6 1V2H12V1C12 0.44772 12.4477 0 13 0C13.5523 0 14 0.44772 14 1V2H15C16.6569 2 18 3.34314 18 5V7V17C18 18.6569 16.6569 20 15 20H3C1.34315 20 0 18.6569 0 17V7V5C0 3.34315 1.34315 2 3 2H4V1ZM5 4H13H15C15.5523 4 16 4.44772 16 5V6H2V5C2 4.44772 2.44772 4 3 4H5ZM2 8V17C2 17.5523 2.44772 18 3 18H15C15.5523 18 16 17.5523 16 17V8H2ZM10.449 10C10.449 9.5635 10.1659 9.1774 9.7495 9.0462C9.3332 8.915 8.8799 9.069 8.6296 9.4267L6.18066 12.9267C5.96691 13.2322 5.94085 13.6312 6.11307 13.9619C6.28528 14.2926 6.62716 14.5 7 14.5H7.5646V16C7.5646 16.437 7.8484 16.8234 8.2653 16.9542C8.6823 17.0849 9.1359 16.9299 9.3855 16.5712L11.8208 13.0712C12.0335 12.7655 12.0588 12.367 11.8863 12.0369C11.7139 11.7069 11.3724 11.5 11 11.5H10.449V10Z" fill="url(#GradientCalendarBolt)"/>
  <defs>
    <linearGradient id="GradientCalendarBolt" x1="0.16369" y1="13.7218" x2="15.383" y2="20.6195" gradientUnits="userSpaceOnUse">
      <stop stopColor="#543FED"/>
      <stop offset="1" stopColor="#462AC8"/>
    </linearGradient>
  </defs>
</svg>

