<svg width="17" height="20" viewBox="0 0 17 20" fill="none" xmlns="http://www.w3.org/2000/svg">
<path fill-rule="evenodd" clip-rule="evenodd" d="M13.7229 9.85533L8.49988 16.9501L3.2769 9.85533C0.743608 6.4141 3.68697 1.97095 8.49988 1.97095C13.3128 1.97095 16.2561 6.4141 13.7229 9.85533ZM1.28419 10.8927C-2.21569 6.13845 1.85072 0 8.5 0C15.1493 0 19.2157 6.13845 15.7158 10.8927L9.28042 19.6344C8.9216 20.1219 8.0784 20.1219 7.71958 19.6344L1.28419 10.8927ZM8.50021 4.92725C7.20578 4.92725 6.15639 5.80965 6.15639 6.89815C6.15639 7.98665 7.20578 8.86907 8.50021 8.86907C9.79464 8.86907 10.844 7.98665 10.844 6.89815C10.844 5.80965 9.79464 4.92725 8.50021 4.92725Z" fill="url(#GradientPin)"/>
<defs>
<linearGradient id="GradientPin" x1="0.154597" y1="13.7218" x2="14.798" y2="19.9897" gradientUnits="userSpaceOnUse">
<stop stop-color="#543FED"/>
<stop offset="1" stop-color="#462AC8"/>
</linearGradient>
</defs>
</svg>

