<svg width="17" height="18" viewBox="0 0 17 18" fill="none" xmlns="http://www.w3.org/2000/svg">
<path fill-rule="evenodd" clip-rule="evenodd" d="M11.9096 1.77663C8.91475 0.142601 5.21987 0.541207 2.6424 2.77639C0.0649233 5.01157 -0.852606 8.61284 0.341112 11.8088C1.29753 14.3695 3.44792 16.2382 6.01977 16.879C6.02777 16.8812 6.03582 16.8831 6.04389 16.885C6.67462 17.0401 7.33051 17.1214 8.00018 17.1211C8.38512 17.1211 8.76934 17.0947 9.14982 17.0421C9.51453 16.9917 9.76932 16.6552 9.71888 16.2904C9.66845 15.9257 9.33191 15.6709 8.96719 15.7214C8.64734 15.7656 8.32414 15.7877 7.99984 15.7877C7.52481 15.788 7.05809 15.7391 6.60545 15.6452C6.20934 14.9935 5.87768 14.1276 5.63291 13.1211H6.99919L7.07694 13.1166C7.4085 13.0781 7.66586 12.7963 7.66586 12.4544C7.66586 12.0862 7.36738 11.7877 6.99919 11.7877H5.37271C5.24614 10.9506 5.17421 10.0513 5.16652 9.12107H7.49918L7.57693 9.11659C7.90849 9.07808 8.16585 8.7963 8.16585 8.45441C8.16585 8.08622 7.86737 7.78774 7.49918 7.78774H5.19988C5.25555 6.84034 5.37801 5.93939 5.5562 5.12107H10.4421C10.6221 5.947 10.7457 6.85827 10.8004 7.81787C10.5293 7.90243 10.3325 8.15543 10.3325 8.45441C10.3325 8.8226 10.631 9.12107 10.9992 9.12107H11.4632C11.4788 9.12177 11.4945 9.12194 11.5103 9.12155L11.5239 9.12107H14.832C14.8252 9.38655 14.803 9.6536 14.7646 9.92105C14.7123 10.2855 14.9653 10.6234 15.3298 10.6757C15.6943 10.728 16.0321 10.4749 16.0844 10.1104C16.1592 9.58892 16.1828 9.06868 16.1582 8.55576C16.1632 8.52271 16.1658 8.48887 16.1658 8.45441C16.1658 8.38938 16.1565 8.32654 16.1392 8.26712C15.9134 5.5709 14.355 3.11085 11.9096 1.77663ZM12.1342 7.78774C12.083 6.85268 11.9707 5.95493 11.8043 5.12107H13.6617C14.2017 5.92061 14.5695 6.82957 14.7348 7.78774H12.1342ZM11.1718 2.89402C11.2814 3.17719 11.3829 3.47573 11.4759 3.78774H12.4811C12.1143 3.46911 11.7097 3.18645 11.271 2.94708C11.2381 2.9291 11.205 2.91141 11.1718 2.89402ZM10.0779 3.78774C9.87908 3.19705 9.64673 2.67904 9.38786 2.25453C8.46813 2.0634 7.52275 2.06513 6.61184 2.25323C6.35153 2.67943 6.11892 3.19785 5.92032 3.78774H10.0779ZM4.0251 11.7877C3.90624 10.9398 3.84025 10.0428 3.83314 9.12107H1.15973C1.17828 9.86672 1.31925 10.617 1.59016 11.3423C1.64672 11.4937 1.70826 11.6423 1.77457 11.7877H4.0251ZM2.57712 13.1211C3.18319 13.9082 3.95173 14.5507 4.82391 15.0076C4.60295 14.4356 4.41515 13.8015 4.2644 13.1211H2.57712ZM3.5113 3.78774H4.52269C4.61615 3.47402 4.71833 3.1738 4.82875 2.88901C4.36459 3.13162 3.92357 3.43022 3.51594 3.78371L3.5113 3.78774ZM4.1943 5.12107H2.32981C1.78406 5.92876 1.42104 6.83931 1.25734 7.78774H3.86426C3.91548 6.8536 4.02773 5.95571 4.1943 5.12107ZM8.22243 10.5404C8.05866 10.1502 8.14719 9.69964 8.44645 9.40038C8.7457 9.10113 9.19623 9.0126 9.606 9.18493L15.6267 11.9428C15.9914 12.1393 16.2019 12.5361 16.1601 12.9482C16.1184 13.3604 15.8326 13.7068 15.4707 13.8146L13.5538 14.5084L12.8407 16.4793C12.711 16.7999 12.4275 17.0337 12.0882 17.1002L11.9943 17.1141C11.5821 17.1558 11.1854 16.9453 10.9697 16.5419L8.22243 10.5404ZM14.3245 12.8118L9.77448 10.7278L11.8565 15.2791L12.407 13.7608C12.4647 13.6014 12.5806 13.4709 12.7297 13.3945L12.8069 13.3609L14.3245 12.8118Z" fill="white"/>
</svg>
