<svg width="46" height="46" viewBox="0 0 46 46" fill="none" xmlns="http://www.w3.org/2000/svg">
<path fill-rule="evenodd" clip-rule="evenodd" d="M27.1127 1.0947C26.3246 0.391527 25.3035 0 24.2422 0H4.31279L4.09742 0.0149817C1.74578 0.232132 -0.0169838 2.1635 0.00024871 4.48302L0.000207316 35.4094L0.00850093 35.6388C0.0757095 36.7043 0.539876 37.6974 1.31227 38.426C2.13988 39.2067 3.24991 39.6164 4.38628 39.5607L14.1565 39.5625L14.301 39.5556C15.0617 39.483 15.6565 38.8422 15.6565 38.0625C15.6565 37.2341 14.985 36.5625 14.1565 36.5625L4.14866 36.5619C3.83029 36.5448 3.57127 36.4328 3.37086 36.2437C3.13703 36.0232 3.00316 35.7168 3.00014 35.3953L3.00021 4.47188L3.00549 4.33389C3.06682 3.60701 3.65102 3.03323 4.38418 2.9983L24.2422 3L24.39 3.00837C24.6832 3.04167 24.9584 3.17329 25.1693 3.38413L30.554 8.76879L30.6526 8.87928C30.8363 9.11016 30.9378 9.39775 30.9378 9.69563V14.1563L30.9447 14.3007C31.0173 15.0614 31.6581 15.6563 32.4378 15.6563C33.2662 15.6563 33.9378 14.9847 33.9378 14.1563V9.69563L33.9309 9.4515C33.8711 8.39748 33.426 7.39861 32.6757 6.64781L27.2903 1.26246L27.1127 1.0947ZM15.5628 11.25C16.3425 11.25 16.9832 11.8449 17.0559 12.6055L17.0628 12.75V26.8125C17.0628 27.5891 16.4725 28.2279 15.7162 28.3048L15.7073 28.3056C15.6597 28.3102 15.6115 28.3125 15.5628 28.3125H9.93779H7.12529C6.29686 28.3125 5.62529 27.6409 5.62529 26.8125C5.62529 26.0328 6.22018 25.3921 6.98083 25.3194L7.12529 25.3125H8.43779V18.375C8.43779 17.5466 9.10936 16.875 9.93779 16.875C10.7175 16.875 11.3582 17.4699 11.4309 18.2305L11.4378 18.375V25.3125H14.0628V12.75C14.0628 11.9216 14.7344 11.25 15.5628 11.25ZM32.4378 19.6875C25.3962 19.6875 19.6878 25.3959 19.6878 32.4375C19.6878 39.4791 25.3962 45.1875 32.4378 45.1875C39.4794 45.1875 45.1878 39.4791 45.1878 32.4375C45.1878 25.3959 39.4794 19.6875 32.4378 19.6875ZM32.4378 22.6875C37.8226 22.6875 42.1878 27.0527 42.1878 32.4375C42.1878 37.8223 37.8226 42.1875 32.4378 42.1875C27.053 42.1875 22.6878 37.8223 22.6878 32.4375C22.6878 27.0527 27.053 22.6875 32.4378 22.6875ZM32.4378 23.9062C33.2175 23.9062 33.8582 24.5011 33.9309 25.2618L33.9333 25.3125H35.2503C36.0787 25.3125 36.7503 25.9841 36.7503 26.8125C36.7503 27.5922 36.1554 28.2329 35.3948 28.3056L35.2503 28.3125H32.4378H31.4395C30.9528 28.3128 30.5347 28.6581 30.4424 29.1359C30.3577 29.5739 30.5686 30.0105 30.9501 30.2194L31.0582 30.2705L34.9308 31.8203C36.715 32.5382 37.7399 34.4201 37.3749 36.3084C37.0422 38.0298 35.6397 39.3159 33.9365 39.5308C33.904 40.3304 33.2454 40.9688 32.4378 40.9688C31.6581 40.9688 31.0173 40.3739 30.9447 39.6132L30.9422 39.5625H29.6253C28.7969 39.5625 28.1253 38.8909 28.1253 38.0625C28.1253 37.2828 28.7202 36.6421 29.4808 36.5694L29.6253 36.5625H32.4378H33.4324C33.919 36.5622 34.3371 36.2169 34.4294 35.7391C34.5141 35.3011 34.3032 34.8645 33.9218 34.6556L33.8136 34.6045L29.941 33.0547C28.1568 32.3368 27.1319 30.4549 27.4969 28.5666C27.8298 26.844 29.2342 25.5572 30.9391 25.3437C30.9718 24.5443 31.6303 23.9062 32.4378 23.9062ZM22.6809 15.418C22.6082 14.6574 21.9675 14.0625 21.1878 14.0625C20.3594 14.0625 19.6878 14.7341 19.6878 15.5625V18.375L19.6947 18.5195C19.7673 19.2801 20.4081 19.875 21.1878 19.875C22.0162 19.875 22.6878 19.2034 22.6878 18.375V15.5625L22.6809 15.418Z" fill="url(#paint0_linear)"/>
<defs>
<linearGradient id="paint0_linear" x1="0.410935" y1="31.0027" x2="37.1495" y2="49.5034" gradientUnits="userSpaceOnUse">
<stop stop-color="#543FED"/>
<stop offset="1" stop-color="#462AC8"/>
</linearGradient>
</defs>
</svg>
