<svg width="46" height="46" viewBox="0 0 46 46" fill="none" xmlns="http://www.w3.org/2000/svg">
<path fill-rule="evenodd" clip-rule="evenodd" d="M9.9375 0C6.00247 0 2.8125 3.18997 2.8125 7.125C2.8125 10.6332 5.34793 13.5492 8.68634 14.1405C3.78862 14.7558 0 18.9354 0 24V29.625L0.00686658 29.7695C0.0795513 30.5301 0.720304 31.125 1.5 31.125H2.955L4.22619 43.8368C4.30287 44.6036 4.94812 45.1875 5.71875 45.1875H14.1563L14.2992 45.1808C15.0053 45.1138 15.5769 44.5556 15.6488 43.8368L16.921 31.125H18.375C19.2034 31.125 19.875 30.4534 19.875 29.625V24C19.875 18.9354 16.0864 14.7558 11.1887 14.1405C14.5271 13.5492 17.0625 10.6332 17.0625 7.125C17.0625 3.18997 13.8725 0 9.9375 0ZM9.9375 3C12.2157 3 14.0625 4.84683 14.0625 7.125C14.0625 9.40317 12.2157 11.25 9.9375 11.25C7.65933 11.25 5.8125 9.40317 5.8125 7.125C5.8125 4.84683 7.65933 3 9.9375 3ZM10.176 17.0665C13.897 17.1922 16.875 20.2483 16.875 24V28.125H15.5625L15.4196 28.1317C14.7134 28.1987 14.1418 28.7569 14.0699 29.4757L12.799 42.187H7.077L5.80506 29.4757L5.78412 29.3342C5.64723 28.6382 5.03496 28.125 4.3125 28.125H3V24C3 20.1685 6.10602 17.0625 9.9375 17.0625L10.176 17.0665ZM33.9306 1.35554C33.8579 0.594888 33.2172 0 32.4375 0C31.6091 0 30.9375 0.671573 30.9375 1.5V2.92497C26.6501 3.57408 23.2616 6.9626 22.6125 11.25H21.1875L21.043 11.2569C20.2824 11.3296 19.6875 11.9703 19.6875 12.75C19.6875 13.5784 20.3591 14.25 21.1875 14.25H22.6125C23.2616 18.5374 26.6501 21.9259 30.9375 22.575V24L30.9444 24.1445C31.0171 24.9051 31.6578 25.5 32.4375 25.5C33.2659 25.5 33.9375 24.8284 33.9375 24V22.575C38.2249 21.9259 41.6134 18.5374 42.2625 14.25H43.6875L43.832 14.2431C44.5926 14.1704 45.1875 13.5297 45.1875 12.75C45.1875 11.9216 44.5159 11.25 43.6875 11.25H42.2625C41.6134 6.9626 38.2249 3.57408 33.9375 2.92497V1.5L33.9306 1.35554ZM30.9375 5.97509V7.125L30.9444 7.26946C31.0171 8.03011 31.6578 8.625 32.4375 8.625C33.2659 8.625 33.9375 7.95343 33.9375 7.125V5.97509C36.5649 6.55418 38.6333 8.62265 39.2124 11.25H38.0625L37.918 11.2569C37.1574 11.3296 36.5625 11.9703 36.5625 12.75C36.5625 13.5784 37.2341 14.25 38.0625 14.25H39.2124C38.6333 16.8774 36.5649 18.9458 33.9375 19.5249V18.375L33.9306 18.2305C33.8579 17.4699 33.2172 16.875 32.4375 16.875C31.6091 16.875 30.9375 17.5466 30.9375 18.375V19.5249C28.3101 18.9458 26.2417 16.8774 25.6626 14.25H26.8125L26.957 14.2431C27.7176 14.1704 28.3125 13.5297 28.3125 12.75C28.3125 11.9216 27.6409 11.25 26.8125 11.25H25.6626C26.2417 8.62265 28.3101 6.55418 30.9375 5.97509Z" fill="white"/>
</svg>
