<svg width="46" height="46" viewBox="0 0 46 46" fill="none" xmlns="http://www.w3.org/2000/svg">
<path fill-rule="evenodd" clip-rule="evenodd" d="M44.7015 17.8365C42.0706 5.65385 30.0748 -2.10019 17.8862 0.503254C5.6977 3.1067 -2.08336 15.085 0.492622 27.2794C3.0686 39.4738 15.0294 47.2818 27.2295 44.7333C28.0405 44.5639 28.5605 43.7692 28.3911 42.9583C28.2217 42.1474 27.427 41.6273 26.6161 41.7967C20.9953 42.9708 15.433 41.6103 11.1184 38.4912L12.5893 31.1297L13.3834 31.13C14.7116 31.1299 15.9655 30.5179 16.7826 29.471C17.5997 28.4242 17.889 27.0593 17.5667 25.771L16.1605 20.1462C15.6803 18.2266 13.9557 16.88 11.9772 16.88H3.8563C5.87348 10.2974 11.3044 4.97679 18.5129 3.43707C25.1033 2.02939 31.6287 4.11321 36.1614 8.4425H31.8372L31.6262 8.44764C29.737 8.53962 28.1169 9.85771 27.6539 11.7085L26.4482 16.5352L26.4198 16.677C26.306 17.4326 26.7834 18.1651 27.5399 18.354C28.3436 18.5548 29.1579 18.066 29.3587 17.2623L30.5643 12.436L30.6013 12.3137C30.7857 11.7959 31.2782 11.4426 31.8373 11.4425L38.6903 11.4417L38.8479 11.6684C40.2627 13.7592 41.2618 16.1066 41.7867 18.5824C41.9585 19.3928 42.7548 19.9104 43.5652 19.7386C44.3695 19.5681 44.8854 18.7826 44.7252 17.9785C44.7196 17.9313 44.7118 17.8839 44.7015 17.8365ZM3.15885 20.2275L3.20431 19.8797L11.9772 19.88C12.5792 19.88 13.104 20.2898 13.2501 20.874L14.6563 26.4988C14.7545 26.8911 14.6664 27.3065 14.4177 27.6251C14.1691 27.9437 13.7874 28.13 13.3833 28.13H11.3603L11.2187 28.1366C10.5653 28.1982 10.0203 28.6815 9.88942 29.3359L8.51731 36.1957L8.38968 36.0631C4.38876 31.8451 2.45279 26.0377 3.15885 20.2275ZM37.4697 29.63C37.4697 28.4132 36.4833 27.4269 35.2666 27.4269C34.0498 27.4269 33.0634 28.4132 33.0634 29.63C33.0634 30.8468 34.0498 31.8331 35.2666 31.8331C36.4833 31.8331 37.4697 30.8468 37.4697 29.63ZM35.2666 19.6925C29.7782 19.6925 25.3291 24.1417 25.3291 29.63C25.3291 33.0318 28.484 38.1938 32.9769 43.9379C33.5272 44.6422 34.372 45.0542 35.2666 45.0542C36.1612 45.0542 37.0059 44.6422 37.5567 43.9373L38.1485 43.1734C42.3302 37.7263 45.2041 32.8801 45.2041 29.63C45.2041 24.1417 40.7549 19.6925 35.2666 19.6925ZM35.2666 22.6925C39.098 22.6925 42.2041 25.7985 42.2041 29.63L42.1996 29.7944C42.078 32.0895 39.4858 36.449 35.9882 41.0577L35.2663 41.9948L34.8161 41.4134C31.1008 36.5708 28.3291 31.9334 28.3291 29.63C28.3291 25.7985 31.4351 22.6925 35.2666 22.6925Z" fill="url(#paint0_linear)"/>
<defs>
<linearGradient id="paint0_linear" x1="0.411082" y1="31.0218" x2="37.1667" y2="49.5264" gradientUnits="userSpaceOnUse">
<stop stop-color="#543FED"/>
<stop offset="1" stop-color="#462AC8"/>
</linearGradient>
</defs>
</svg>

