<svg width="30" height="46" viewBox="0 0 30 46" fill="none" xmlns="http://www.w3.org/2000/svg">
<path fill-rule="evenodd" clip-rule="evenodd" d="M25.9475 0H11.51C10.3546 0 9.30918 0.684931 8.84708 1.74375L0.241182 21.4304C-0.150657 22.334 -0.0605929 23.3696 0.478926 24.1882L0.591758 24.3475C1.14088 25.0702 1.99995 25.4978 2.91503 25.4944L8.32165 25.494L0.780646 43.091C0.130055 44.6089 2.05191 45.9103 3.21985 44.7427L28.9449 19.0252C29.7765 18.1956 30.0265 16.9447 29.5767 15.8577L29.4962 15.6801C29.0088 14.6941 28.0009 14.062 26.8899 14.0625L20.7446 14.062L28.2157 4.72261C28.9136 3.85164 29.0506 2.65625 28.5671 1.64883C28.0836 0.641278 27.0651 0 25.9475 0ZM11.5716 3H25.7516L18.2793 12.3418C17.5817 13.2153 17.4464 14.41 17.9306 15.4163L18.0215 15.59C18.5348 16.4956 19.4982 17.0624 20.5492 17.0625L26.6646 17.062L6.60365 37.118L11.1356 26.5465C11.5196 25.6475 11.4273 24.6177 10.8905 23.8028L10.7783 23.6442C10.2321 22.9245 9.37898 22.4964 8.46824 22.4944L3.05065 22.494L11.5716 3Z" fill="url(#paint0_linear)"/>
<defs>
<linearGradient id="paint0_linear" x1="0.270977" y1="31.0063" x2="27.6249" y2="40.0886" gradientUnits="userSpaceOnUse">
<stop stop-color="#543FED"/>
<stop offset="1" stop-color="#462AC8"/>
</linearGradient>
</defs>
</svg>
