<svg width="16" height="20" viewBox="0 0 16 20" fill="none" xmlns="http://www.w3.org/2000/svg">
<path fill-rule="evenodd" clip-rule="evenodd" d="M7.99968 10.0313C6.89507 10.0313 5.99967 11.1031 5.99967 12.4252V13.3372V15.6172C5.99967 16.0579 5.70119 16.4151 5.33301 16.4151C4.96482 16.4151 4.66634 16.0579 4.66634 15.6172V13.3372V12.4252L4.66642 12.3969C4.55753 12.4156 4.44621 12.4252 4.33301 12.4252C4.25963 12.4252 4.18706 12.4212 4.11541 12.4133C4.07783 12.4212 4.03915 12.4252 3.99967 12.4252H3.71396C3.13537 12.4252 2.66634 12.9867 2.66634 13.6792V14.8192C2.66634 15.2599 2.36786 15.6172 1.99967 15.6172C1.63149 15.6172 1.33301 15.2599 1.33301 14.8192V13.6792C1.33301 12.665 1.77565 11.7745 2.44231 11.2694C2.16385 10.8094 1.99967 10.2438 1.99967 9.63231C1.99967 8.08981 3.04434 6.83938 4.33301 6.83938C4.6947 6.83938 5.03717 6.93788 5.34272 7.11371C5.33629 7.02329 5.33301 6.93179 5.33301 6.83938C5.33301 5.07653 6.52692 3.64746 7.99968 3.64746C9.47241 3.64746 10.6663 5.07653 10.6663 6.83938C10.6663 6.93179 10.6631 7.02329 10.6566 7.11371C10.9622 6.93789 11.3047 6.83938 11.6663 6.83938C12.955 6.83938 13.9997 8.08981 13.9997 9.63231C13.9997 10.2438 13.8355 10.8094 13.557 11.2694C14.2237 11.7745 14.6663 12.665 14.6663 13.6792V14.8192C14.6663 15.2599 14.3679 15.6172 13.9997 15.6172C13.6315 15.6172 13.333 15.2599 13.333 14.8192V13.6792C13.333 12.9867 12.8639 12.4252 12.2854 12.4252H11.9997C11.9602 12.4252 11.9215 12.4212 11.8839 12.4133C11.8123 12.4212 11.7397 12.4252 11.6663 12.4252C11.5531 12.4252 11.4418 12.4156 11.3329 12.3969L11.333 12.4252V13.3372V15.6172C11.333 16.0579 11.0345 16.4151 10.6663 16.4151C10.2981 16.4151 9.99968 16.0579 9.99968 15.6172V13.3372V12.4252C9.99968 11.1031 9.10428 10.0313 7.99968 10.0313ZM7.99968 8.43533C7.26329 8.43533 6.66635 7.7208 6.66635 6.83938C6.66635 5.95795 7.26329 5.24342 7.99968 5.24342C8.73608 5.24342 9.33302 5.95795 9.33302 6.83938C9.33302 7.7208 8.73608 8.43533 7.99968 8.43533ZM4.33301 8.43534C3.78072 8.43534 3.33301 8.97126 3.33301 9.63231C3.33301 10.2934 3.78072 10.8293 4.33301 10.8293C4.88529 10.8293 5.33301 10.2934 5.33301 9.63231C5.33301 8.97126 4.88529 8.43534 4.33301 8.43534ZM11.6664 8.43534C11.1141 8.43534 10.6664 8.97126 10.6664 9.63231C10.6664 10.2934 11.1141 10.8293 11.6664 10.8293C12.2186 10.8293 12.6664 10.2934 12.6664 9.63231C12.6664 8.97126 12.2186 8.43534 11.6664 8.43534Z" fill="white"/>
</svg>
