<svg width="20" height="14" viewBox="0 0 20 14" fill="none" xmlns="http://www.w3.org/2000/svg">
<path fill-rule="evenodd" clip-rule="evenodd" d="M14.7614 0.00112035C15.2009 0.0218604 15.5752 0.32742 15.6835 0.75386L17.2063 6.75001H19C19.5523 6.75001 20 7.19771 20 7.75001C20 8.30231 19.5523 8.75001 19 8.75001H16.4286C15.9711 8.75001 15.5719 8.43961 15.4593 7.99621L14.5526 4.42591L11.3703 13.3363C11.2344 13.7169 10.8828 13.9782 10.4792 13.9987C10.0757 14.0192 9.6994 13.7948 9.5257 13.4299L6.06224 6.15661L4.43967 8.99611C4.26163 9.30771 3.93029 9.50001 3.57143 9.50001H1C0.44772 9.50001 0 9.05231 0 8.50001C0 7.94771 0.44772 7.50001 1 7.50001H2.99111L5.27461 3.50387C5.4593 3.18067 5.80822 2.9868 6.18021 3.00071C6.5522 3.01461 6.88568 3.23399 7.04572 3.57008L10.2965 10.3967L13.7725 0.66367C13.9205 0.24933 14.3219 -0.0196196 14.7614 0.00112035Z" fill="black"/>
</svg>

