<svg width="58" height="54" viewBox="0 0 58 54" fill="none" xmlns="http://www.w3.org/2000/svg">
<path fill-rule="evenodd" clip-rule="evenodd" d="M4.46106 8.58322C4.46106 3.95826 8.42998 0.208984 13.3259 0.208984C18.2218 0.208984 22.1907 3.95826 22.1907 8.58322C22.1907 13.2082 18.2218 16.9575 13.3259 16.9575C8.42998 16.9575 4.46106 13.2082 4.46106 8.58322ZM18.6447 8.58321C18.6447 5.80823 16.2633 3.55867 13.3258 3.55867C10.3882 3.55867 8.0069 5.80823 8.0069 8.58321C8.0069 11.3582 10.3882 13.6077 13.3258 13.6077C16.2633 13.6077 18.6447 11.3582 18.6447 8.58321ZM11.553 32.0311V20.4747C7.50662 21.2505 4.46106 24.63 4.46106 28.6814V33.7059H6.23403C7.08796 33.7059 7.81165 34.279 7.97345 35.0561L7.9982 35.2141L9.61094 50.4544H17.0397L18.6536 35.2141C18.7386 34.4114 19.4142 33.7882 20.2488 33.7135L20.4178 33.7059H22.1907V28.6814C22.1907 24.63 19.1452 21.2505 15.0988 20.4747V32.0311C15.0988 32.9561 14.3051 33.7059 13.3259 33.7059C12.4043 33.7059 11.647 33.0417 11.5611 32.1924L11.553 32.0311ZM25.7367 28.6814C25.7367 22.2064 20.1802 16.9575 13.3259 16.9575C6.47156 16.9575 0.915039 22.2064 0.915039 28.6814V35.3808L0.923155 35.5421C1.00907 36.3914 1.76643 37.0556 2.68801 37.0556H4.62883L6.24276 52.2959C6.3334 53.1521 7.09607 53.8041 8.00694 53.8041H18.6448L18.8137 53.7965C19.6484 53.7218 20.324 53.0985 20.409 52.2959L22.0217 37.0556H23.9637C24.9429 37.0556 25.7367 36.3057 25.7367 35.3808V28.6814ZM57.6444 4.997C57.5136 2.33184 55.1849 0.208984 52.3312 0.208984H27.5097L27.3389 0.216651C26.4398 0.297809 25.7367 1.01325 25.7367 1.88383C25.7367 2.80882 26.5305 3.55868 27.5097 3.55868H52.3312L52.502 3.56635C53.4011 3.6475 54.1042 4.36294 54.1042 5.23353V28.6814L54.0961 28.8427C54.0102 29.692 53.2528 30.3562 52.3312 30.3562L38.1475 30.3562L31.0556 30.3562L30.8849 30.3639C29.9858 30.4451 29.2826 31.1605 29.2826 32.0311C29.2826 32.9561 30.0764 33.7059 31.0556 33.7059H36.3745V42.0801H31.0556L30.8849 42.0878C29.9858 42.169 29.2827 42.8844 29.2827 43.755C29.2827 44.68 30.0764 45.4298 31.0556 45.4298H38.1366C38.1402 45.4299 38.1439 45.4299 38.1475 45.4299C38.1511 45.4299 38.1547 45.4299 38.1583 45.4298H45.2394L45.4102 45.4222C46.3092 45.341 47.0124 44.6256 47.0124 43.755C47.0124 42.83 46.2186 42.0801 45.2394 42.0801H39.9205V33.7059H52.3312L52.5816 33.7005C55.4029 33.577 57.6501 31.3771 57.6501 28.6814V5.23353L57.6444 4.997ZM49.4156 10.367C49.6429 10.4485 49.8561 10.5757 50.0391 10.7486C50.2508 10.9486 50.3978 11.1866 50.4801 11.4394C50.5003 11.5014 50.5165 11.5644 50.5289 11.6279C50.5361 11.6648 50.542 11.7019 50.5466 11.7392C50.5553 11.8101 50.5592 11.8814 50.5583 11.9527V18.6323C50.5583 19.5573 49.7645 20.3071 48.7853 20.3071C47.8637 20.3071 47.1064 19.6429 47.0205 18.7936L47.0123 18.6323V15.9764L41.1743 21.4914C40.5251 22.1046 39.4979 22.1429 38.8015 21.6064L38.6669 21.4914L34.6017 17.6508L30.5364 21.4914C29.8873 22.1046 28.8601 22.1429 28.1637 21.6064L28.0291 21.4914C27.3799 20.8782 27.3394 19.9079 27.9073 19.25L28.0291 19.1228L33.348 14.0983C33.9971 13.4851 35.0243 13.4468 35.7207 13.9833L35.8553 14.0983L39.9206 17.9389L44.5052 13.6077H41.6934C40.7719 13.6077 40.0145 12.9435 39.9286 12.0942L39.9205 11.9329C39.9205 11.0623 40.6236 10.3469 41.5227 10.2657L41.6934 10.258H48.7853C49.0073 10.258 49.2198 10.2966 49.4156 10.367Z" fill="url(#paint0_linear)"/>
<defs>
<linearGradient id="paint0_linear" x1="1.43098" y1="36.98" x2="46.4593" y2="60.9836" gradientUnits="userSpaceOnUse">
<stop stop-color="#543FED"/>
<stop offset="1" stop-color="#462AC8"/>
</linearGradient>
</defs>
</svg>

