<svg width="11" height="17" viewBox="0 0 11 17" fill="none" xmlns="http://www.w3.org/2000/svg">
<path fill-rule="evenodd" clip-rule="evenodd" d="M3.07672 6.96799C2.34999 6.30306 1.89412 5.34626 1.89412 4.28285C1.89412 2.27454 3.52003 0.646484 5.5257 0.646484C7.53138 0.646484 9.15728 2.27454 9.15728 4.28285C9.15728 5.34626 8.70139 6.30306 7.97467 6.96799C9.40656 7.8102 10.3678 9.3685 10.3678 11.1515V12.7677C10.3678 13.214 10.0065 13.5758 9.56079 13.5758H7.94675V15.2869C7.94675 16.219 7.12642 16.8081 6.33272 16.8081H4.71868C3.92498 16.8081 3.10465 16.219 3.10465 15.2869V13.5758H1.49061C1.04491 13.5758 0.683594 13.214 0.683594 12.7677V11.1515C0.683594 9.3685 1.64482 7.8102 3.07672 6.96799ZM4.71858 12.7793C4.71866 12.7831 4.71866 12.787 4.71866 12.7909V15.1919H6.3327V12.7677C6.3327 12.3214 6.694 11.9596 7.13972 11.9596H8.75375V11.1515C8.75375 9.3664 7.30846 7.91921 5.52568 7.91921C3.74287 7.91921 2.29761 9.3664 2.29761 11.1515V11.9596H3.91165C4.35736 11.9596 4.71866 12.3214 4.71866 12.7677C4.71866 12.7716 4.71866 12.7755 4.71858 12.7793ZM5.52568 6.30305C6.63993 6.30305 7.54322 5.39858 7.54322 4.28285C7.54322 3.16713 6.63993 2.26265 5.52568 2.26265C4.41143 2.26265 3.50814 3.16713 3.50814 4.28285C3.50814 5.39858 4.41143 6.30305 5.52568 6.30305Z" fill="white"/>
</svg>
