<svg width="10" height="17" viewBox="0 0 10 17" fill="none" xmlns="http://www.w3.org/2000/svg">
<path fill-rule="evenodd" clip-rule="evenodd" d="M7.86721 8.46004L4.99967 14.1215L2.13216 8.46004C0.741333 5.71401 2.35729 2.16845 4.99967 2.16845C7.64207 2.16845 9.25801 5.71401 7.86721 8.46004ZM1.03805 9.28786C-0.883447 5.49407 1.34909 0.595703 4.99967 0.595703C8.65027 0.595703 10.8828 5.49407 8.96127 9.28786L5.42814 16.2636C5.23114 16.6526 4.76821 16.6526 4.57121 16.2636L1.03805 9.28786ZM4.99981 4.52755C4.28914 4.52755 3.71301 5.23169 3.71301 6.1003C3.71301 6.9689 4.28914 7.67305 4.99981 7.67305C5.71047 7.67305 6.28661 6.9689 6.28661 6.1003C6.28661 5.23169 5.71047 4.52755 4.99981 4.52755Z" fill="white"/>
</svg>
