<svg width="47" height="47" viewBox="0 0 47 47" fill="none" xmlns="http://www.w3.org/2000/svg">
<path fill-rule="evenodd" clip-rule="evenodd" d="M28.0186 2.00095C27.2305 1.29778 26.2095 0.90625 25.1481 0.90625H5.21875L5.00981 0.911223C2.72512 1.02021 0.90625 2.90707 0.90625 5.21875V36.1562L0.911223 36.3652C1.02021 38.6499 2.90707 40.4688 5.21875 40.4688H15.0625L15.207 40.4619C15.9676 40.3892 16.5625 39.7484 16.5625 38.9688C16.5625 38.1403 15.8909 37.4688 15.0625 37.4688H5.21875L5.08455 37.462C4.42272 37.3948 3.90625 36.8358 3.90625 36.1562V5.21875L3.91303 5.08455C3.98024 4.42272 4.53918 3.90625 5.21875 3.90625H25.1481L25.296 3.91462C25.5892 3.94792 25.8643 4.07954 26.0753 4.29037L31.46 9.67504L31.5586 9.78553C31.7423 10.0164 31.8438 10.304 31.8438 10.6019V15.0625L31.8506 15.207C31.9233 15.9676 32.5641 16.5625 33.3438 16.5625C34.1722 16.5625 34.8438 15.8909 34.8438 15.0625V10.6019L34.8368 10.3577C34.7771 9.30373 34.332 8.30486 33.5816 7.55405L28.1963 2.16871L28.0186 2.00095ZM9.52438 13.5118C9.4517 12.7511 8.81095 12.1562 8.03125 12.1562C7.20282 12.1562 6.53125 12.8278 6.53125 13.6562V24.9062V30.5312L6.53812 30.6757C6.6108 31.4364 7.25155 32.0312 8.03125 32.0312H16.4688L16.6132 32.0244C17.3739 31.9517 17.9688 31.3109 17.9688 30.5312L17.9619 30.3868C17.8892 29.6261 17.2484 29.0312 16.4688 29.0312L9.531 29.031L9.53106 25.5278L14.1338 20.925L14.2446 20.826C14.476 20.6417 14.764 20.54 15.0625 20.54C15.4107 20.54 15.7447 20.6784 15.9909 20.9247L17.0806 22.0144L17.2611 22.1847C18.185 23.0072 19.4212 23.3962 20.6561 23.244C21.9734 23.0818 23.1426 22.322 23.8259 21.1841L24.4994 20.0555L24.5675 19.9279C24.8948 19.2374 24.6494 18.3983 23.9798 17.9987C23.2684 17.5743 22.3476 17.8069 21.9231 18.5183L21.2519 19.6433L21.1679 19.7664C20.9564 20.0409 20.6401 20.2233 20.2893 20.2666C19.8884 20.3159 19.4871 20.178 19.2013 19.8925L18.1125 18.8037L17.935 18.6358C17.147 17.9321 16.125 17.54 15.0625 17.54C13.9183 17.54 12.821 17.9947 12.0121 18.8041L9.53113 21.2851L9.53125 13.6562L9.52438 13.5118ZM33.3438 20.5938C26.3021 20.5938 20.5938 26.3021 20.5938 33.3438C20.5938 40.3854 26.3021 46.0938 33.3438 46.0938C40.3854 46.0938 46.0938 40.3854 46.0938 33.3438C46.0938 26.3021 40.3854 20.5938 33.3438 20.5938ZM33.3438 23.5938C38.7285 23.5938 43.0938 27.959 43.0938 33.3438C43.0938 38.7285 38.7285 43.0938 33.3438 43.0938C27.959 43.0938 23.5938 38.7285 23.5938 33.3438C23.5938 27.959 27.959 23.5938 33.3438 23.5938ZM33.3438 24.8125C34.1234 24.8125 34.7642 25.4074 34.8369 26.168L34.8393 26.2188H36.1562C36.9847 26.2188 37.6562 26.8903 37.6562 27.7188C37.6562 28.4984 37.0614 29.1392 36.3007 29.2119L36.1562 29.2188H33.3438H32.3454C31.8588 29.2191 31.4407 29.5644 31.3483 30.0422C31.2637 30.4801 31.4746 30.9168 31.856 31.1256L31.9642 31.1768L35.8368 32.7265C37.621 33.4444 38.6458 35.3264 38.2809 37.2146C37.9482 38.936 36.5456 40.2221 34.8425 40.437C34.81 41.2367 34.1514 41.875 33.3438 41.875C32.5641 41.875 31.9233 41.2801 31.8506 40.5195L31.8482 40.4688H30.5312C29.7028 40.4688 29.0312 39.7972 29.0312 38.9688C29.0312 38.1891 29.6261 37.5483 30.3868 37.4756L30.5312 37.4688H33.3438H34.3383C34.825 37.4684 35.2431 37.1231 35.3354 36.6453C35.4201 36.2074 35.2092 35.7707 34.8277 35.5619L34.7196 35.5107L30.847 33.961C29.0628 33.2431 28.0379 31.3611 28.4029 29.4729C28.7358 27.7502 30.1402 26.4635 31.845 26.25C31.8778 25.4506 32.5363 24.8125 33.3438 24.8125Z" fill="url(#paint0_linear)"/>
<defs>
<linearGradient id="paint0_linear" x1="1.31718" y1="31.9089" x2="38.0556" y2="50.4095" gradientUnits="userSpaceOnUse">
<stop stop-color="#543FED"/>
<stop offset="1" stop-color="#462AC8"/>
</linearGradient>
</defs>
</svg>
