<svg width="46" height="46" viewBox="0 0 46 46" fill="none" xmlns="http://www.w3.org/2000/svg">
<path fill-rule="evenodd" clip-rule="evenodd" d="M9.9375 0C6.00247 0 2.8125 3.18997 2.8125 7.125C2.8125 10.6332 5.34793 13.5492 8.68634 14.1405C3.78862 14.7558 0 18.9354 0 24V29.625L0.00686658 29.7695C0.0795513 30.5301 0.720304 31.125 1.5 31.125L2.95475 31.1248L4.22619 43.8368C4.30287 44.6036 4.94812 45.1875 5.71875 45.1875H14.1562L14.2992 45.1808C15.0053 45.1138 15.5769 44.5556 15.6488 43.8368L16.9198 31.1248L18.375 31.125C19.2034 31.125 19.875 30.4534 19.875 29.625V24C19.875 18.9354 16.0864 14.7558 11.1887 14.1405C14.5271 13.5492 17.0625 10.6332 17.0625 7.125C17.0625 3.18997 13.8725 0 9.9375 0ZM9.9375 3C12.2157 3 14.0625 4.84683 14.0625 7.125C14.0625 9.40317 12.2157 11.25 9.9375 11.25C7.65933 11.25 5.8125 9.40317 5.8125 7.125C5.8125 4.84683 7.65933 3 9.9375 3ZM10.176 17.0665C13.897 17.1922 16.875 20.2483 16.875 24L16.8748 28.1248L15.5625 28.125L15.4196 28.1317C14.7134 28.1987 14.1418 28.7569 14.0699 29.4757L12.7978 42.1868H7.07575L5.80506 29.4757L5.78412 29.3342C5.64723 28.6382 5.03496 28.125 4.3125 28.125L2.99975 28.1248L3 24C3 20.1685 6.10602 17.0625 9.9375 17.0625L10.176 17.0665ZM40.875 0C43.1867 0 45.0735 1.81887 45.1825 4.10356L45.1875 4.3125V24C45.1875 26.3117 43.3686 28.1985 41.0839 28.3075L40.875 28.3125H24C23.1716 28.3125 22.5 27.6409 22.5 26.8125C22.5 26.0328 23.0949 25.3921 23.8555 25.3194L24 25.3125H40.875C41.5546 25.3125 42.1135 24.796 42.1807 24.1342L42.1875 24V4.3125C42.1875 3.63293 41.671 3.07399 41.0092 3.00678L40.875 3H21.1875C20.3591 3 19.6875 2.32843 19.6875 1.5C19.6875 0.720304 20.2824 0.0795513 21.043 0.00686658L21.1875 0H40.875ZM39.5625 21.1875C39.5625 20.3591 38.8909 19.6875 38.0625 19.6875H36.75V12.75C36.75 11.9216 36.0784 11.25 35.25 11.25H31.125V7.125L31.1181 6.98054C31.0454 6.21989 30.4047 5.625 29.625 5.625H24L23.8555 5.63187C23.0949 5.70455 22.5 6.3453 22.5 7.125V12.75L22.5069 12.8945C22.5796 13.6551 23.2203 14.25 24 14.25L24.1445 14.2431C24.9051 14.1704 25.5 13.5297 25.5 12.75L25.4998 8.62475H28.1248L28.125 19.6875H24L23.8555 19.6944C23.0949 19.7671 22.5 20.4078 22.5 21.1875C22.5 22.0159 23.1716 22.6875 24 22.6875H29.625H35.25H38.0625L38.207 22.6806C38.9676 22.6079 39.5625 21.9672 39.5625 21.1875ZM31.125 19.6867H33.7497V14.2498H31.125V19.6867Z" fill="url(#paint0_linear)"/>
<defs>
<linearGradient id="paint0_linear" x1="0.410931" y1="31.0027" x2="37.1494" y2="49.5032" gradientUnits="userSpaceOnUse">
<stop stop-color="#543FED"/>
<stop offset="1" stop-color="#462AC8"/>
</linearGradient>
</defs>
</svg>

