<svg width="46" height="46" viewBox="0 0 46 46" fill="none" xmlns="http://www.w3.org/2000/svg">
<path fill-rule="evenodd" clip-rule="evenodd" d="M0 12.75C0 5.70837 5.70837 0 12.75 0C19.7916 0 25.5 5.70837 25.5 12.75C25.5 19.7916 19.7916 25.5 12.75 25.5C5.70837 25.5 0 19.7916 0 12.75ZM22.5 12.75C22.5 7.36522 18.1348 3 12.75 3C7.36522 3 3 7.36522 3 12.75C3 18.1348 7.36522 22.5 12.75 22.5C18.1348 22.5 22.5 18.1348 22.5 12.75ZM26.6241 0.350251C26.1545 0.265218 25.6564 0.194064 25.1314 0.13502L24.987 0.125701C24.223 0.112931 23.5603 0.683194 23.4731 1.45801C23.3806 2.28125 23.9729 3.02366 24.7961 3.11623C25.2577 3.16813 25.69 3.2299 26.0896 3.30225C26.9048 3.44985 27.6853 2.90868 27.8329 2.09351C27.9805 1.27834 27.4393 0.497854 26.6241 0.350251ZM34.844 3.68428C34.1797 3.30675 33.3246 3.48941 32.8767 4.12757C32.4007 4.80562 32.5645 5.74113 33.2426 6.21709L34.3938 7.02522L34.516 7.1026C35.1803 7.48013 36.0354 7.29747 36.4833 6.6593C36.9593 5.98125 36.7955 5.04574 36.1174 4.56978L34.9662 3.76166L34.844 3.68428ZM40.1304 10.695C40.846 10.2775 41.7645 10.5192 42.1819 11.2348C42.426 11.6532 42.6619 12.0922 42.8954 12.5592C43.2659 13.3001 42.9655 14.2012 42.2246 14.5716C41.4836 14.9421 40.5826 14.6418 40.2121 13.9008C40.0063 13.4893 39.8007 13.1066 39.5906 12.7464C39.1732 12.0309 39.4149 11.1124 40.1304 10.695ZM16.1474 41.0617C15.3786 40.7531 14.5052 41.1262 14.1967 41.8951C13.8881 42.6639 14.2612 43.5373 15.0301 43.8458C15.5298 44.0464 16.0428 44.2119 16.5655 44.3411C17.3697 44.54 18.1829 44.0493 18.3818 43.2451C18.5806 42.4409 18.0899 41.6277 17.2857 41.4289C16.8982 41.333 16.5179 41.2104 16.1474 41.0617ZM6.38526 36.0454C6.9287 35.4906 7.79736 35.4472 8.39148 35.9216L8.50646 36.0234L9.50959 37.0059C10.1014 37.5856 10.1113 38.5352 9.53162 39.1271C8.98818 39.6819 8.11952 39.7253 7.5254 39.2509L7.41041 39.1491L6.40729 38.1666C5.81545 37.587 5.80558 36.6373 6.38526 36.0454ZM3.89496 28.2975C3.65367 27.505 2.81561 27.0581 2.0231 27.2994C1.23059 27.5407 0.783743 28.3788 1.02504 29.1713C1.1711 29.651 1.33386 30.1272 1.51327 30.5998C1.80727 31.3743 2.67346 31.7639 3.44797 31.4699C4.22247 31.1759 4.61199 30.3097 4.31799 29.5352C4.16239 29.1253 4.0214 28.7127 3.89496 28.2975ZM32.49 19.6875C25.4484 19.6875 19.74 25.3959 19.74 32.4375C19.74 39.4791 25.4484 45.1875 32.49 45.1875C39.5316 45.1875 45.24 39.4791 45.24 32.4375C45.24 25.3959 39.5316 19.6875 32.49 19.6875ZM32.49 22.6875C37.8748 22.6875 42.24 27.0527 42.24 32.4375C42.24 37.8223 37.8748 42.1875 32.49 42.1875C27.1052 42.1875 22.74 37.8223 22.74 32.4375C22.74 27.0527 27.1052 22.6875 32.49 22.6875ZM38.4037 27.9656C37.7409 27.4685 36.8007 27.6029 36.3037 28.2657L30.921 35.4424L28.1844 32.7062L28.0705 32.6032C27.4813 32.1227 26.6123 32.157 26.0631 32.7062C25.4773 33.292 25.4773 34.2417 26.0631 34.8275L28.8756 37.64L29.0172 37.7724C29.5989 38.2809 30.3612 38.5389 31.1366 38.484C31.9766 38.4246 32.7497 38.0039 33.2558 37.3308L38.7038 30.0655L38.785 29.9458C39.1832 29.2937 39.0274 28.4333 38.4037 27.9656ZM15.5625 5.625C16.3909 5.625 17.0625 6.29657 17.0625 7.125C17.0625 7.9047 16.4676 8.54545 15.707 8.61813L15.5625 8.625H12.75H11.7517C11.265 8.62534 10.8469 8.97061 10.7546 9.4484C10.6699 9.88638 10.8808 10.323 11.2618 10.5317L11.3699 10.5828L15.2403 12.1298C17.0286 12.8452 18.0572 14.7295 17.6919 16.6206C17.3588 18.3447 15.9526 19.6318 14.2487 19.8441C14.2157 20.6434 13.5574 21.2812 12.75 21.2812C11.9703 21.2812 11.3296 20.6864 11.2569 19.9257L11.2545 19.875H9.9375C9.10907 19.875 8.4375 19.2034 8.4375 18.375C8.4375 17.5953 9.03239 16.9546 9.79304 16.8819L9.9375 16.875L12.7468 16.875L12.75 16.875L12.7532 16.875H13.7474C14.2347 16.8756 14.6539 16.5301 14.7463 16.0515C14.8311 15.6129 14.6194 15.1757 14.2353 14.9666L14.1264 14.9154L10.2532 13.3672C8.46902 12.6493 7.44416 10.7674 7.80911 8.87912C8.14205 7.15648 9.54644 5.86973 11.2513 5.65625C11.284 4.8568 11.9425 4.21875 12.75 4.21875C13.5297 4.21875 14.1704 4.81364 14.2431 5.57429L14.2455 5.625H15.5625Z" fill="url(#paint0_linear)"/>
<defs>
<linearGradient id="paint0_linear" x1="0.411409" y1="31.0027" x2="37.1752" y2="49.5375" gradientUnits="userSpaceOnUse">
<stop stop-color="#543FED"/>
<stop offset="1" stop-color="#462AC8"/>
</linearGradient>
</defs>
</svg>
