<svg width="47" height="47" viewBox="0 0 47 47" fill="none" xmlns="http://www.w3.org/2000/svg">
<path fill-rule="evenodd" clip-rule="evenodd" d="M23.5076 0.90625C19.9609 0.90625 17.0857 3.78142 17.0857 7.32812C17.0857 9.62852 18.2953 11.6464 20.1131 12.7805C18.6413 13.343 17.3152 14.2691 16.27 15.4962C15.7329 16.1268 15.8087 17.0736 16.4394 17.6107C17.0701 18.1479 18.0168 18.072 18.5539 17.4413C19.7898 15.9903 21.5998 15.1544 23.5057 15.1544C25.4117 15.1544 27.2217 15.9903 28.4575 17.4413C28.9947 18.072 29.9414 18.1479 30.5721 17.6107C31.2028 17.0736 31.2786 16.1268 30.7414 15.4962C29.6969 14.2697 28.3716 13.344 26.9007 12.7814C28.7193 11.6475 29.9295 9.62912 29.9295 7.32812C29.9295 3.78142 27.0543 0.90625 23.5076 0.90625ZM23.5076 3.90625C25.3975 3.90625 26.9295 5.43828 26.9295 7.32812C26.9295 9.21797 25.3975 10.75 23.5076 10.75C21.6178 10.75 20.0857 9.21797 20.0857 7.32812C20.0857 5.43828 21.6178 3.90625 23.5076 3.90625ZM3.02325 34.0469C3.02325 30.5002 5.89842 27.625 9.44512 27.625C12.9918 27.625 15.867 30.5002 15.867 34.0469C15.867 36.3493 14.6553 38.3688 12.8348 39.5023C14.9293 40.3057 16.7089 41.8423 17.7999 43.8879C18.1897 44.6188 17.9132 45.5274 17.1823 45.9173C16.4513 46.3071 15.5427 46.0306 15.1528 45.2996C14.0286 43.1917 11.8341 41.875 9.44512 41.875C7.05613 41.875 4.86163 43.1917 3.7374 45.2996C3.34755 46.0306 2.43895 46.3071 1.70799 45.9173C0.977023 45.5274 0.700493 44.6188 1.09034 43.8879C2.18133 41.8423 3.96089 40.3057 6.05549 39.5023C4.23496 38.3688 3.02325 36.3493 3.02325 34.0469ZM12.867 34.0469C12.867 32.157 11.335 30.625 9.44512 30.625C7.55527 30.625 6.02325 32.157 6.02325 34.0469C6.02325 35.9367 7.55527 37.4688 9.44512 37.4688C11.335 37.4688 12.867 35.9367 12.867 34.0469ZM37.5701 27.625C34.0234 27.625 31.1482 30.5002 31.1482 34.0469C31.1482 36.3493 32.36 38.3688 34.1805 39.5023C32.0859 40.3057 30.3063 41.8423 29.2153 43.8879C28.8255 44.6188 29.102 45.5274 29.833 45.9173C30.564 46.3071 31.4726 46.0306 31.8624 45.2996C32.9866 43.1917 35.1811 41.875 37.5701 41.875C39.9591 41.875 42.1536 43.1917 43.2778 45.2996C43.6677 46.0306 44.5763 46.3071 45.3073 45.9173C46.0382 45.5274 46.3147 44.6188 45.9249 43.8879C44.8339 41.8423 43.0543 40.3057 40.9598 39.5023C42.7803 38.3688 43.992 36.3493 43.992 34.0469C43.992 30.5002 41.1168 27.625 37.5701 27.625ZM37.5701 30.625C39.46 30.625 40.992 32.157 40.992 34.0469C40.992 35.9367 39.46 37.4688 37.5701 37.4688C35.6803 37.4688 34.1482 35.9367 34.1482 34.0469C34.1482 32.157 35.6803 30.625 37.5701 30.625ZM28.5824 36.5185C29.3547 36.2188 30.2237 36.6018 30.5235 37.3741C30.8232 38.1464 30.4402 39.0155 29.6679 39.3152C25.7383 40.8404 21.3827 40.8536 17.444 39.3523C16.6699 39.0572 16.2816 38.1905 16.5766 37.4164C16.8717 36.6423 17.7384 36.2539 18.5125 36.549C21.7572 37.7858 25.3453 37.7749 28.5824 36.5185ZM14.0069 11.2247C13.4406 10.62 12.4914 10.5889 11.8867 11.1551C8.4721 14.3528 6.53525 18.8225 6.53699 23.5006C6.53699 23.9914 6.56334 24.487 6.61455 25.0437C6.69045 25.8686 7.42072 26.4758 8.24566 26.3999C9.07061 26.324 9.67783 25.5938 9.60194 24.7688C9.55859 24.2977 9.53699 23.8914 9.53699 23.5C9.53556 19.6515 11.1287 15.9751 13.9373 13.3449C14.542 12.7786 14.5731 11.8294 14.0069 11.2247ZM33.0065 11.2247C33.5728 10.62 34.522 10.5889 35.1267 11.1551C38.5413 14.3528 40.4781 18.8225 40.4764 23.5C40.4764 23.9891 40.4495 24.4972 40.3987 25.0448C40.3222 25.8697 39.5915 26.4763 38.7666 26.3998C37.9417 26.3233 37.335 25.5926 37.4115 24.7677C37.4543 24.3067 37.4764 23.8892 37.4764 23.4994C37.4778 19.6515 35.8847 15.9751 33.0761 13.3449C32.4714 12.7786 32.4402 11.8294 33.0065 11.2247ZM25.0076 20.7925V19.2812L25.0008 19.1368C24.9281 18.3761 24.2873 17.7812 23.5076 17.7812C22.6792 17.7812 22.0076 18.4528 22.0076 19.2812V20.7925C21.5328 20.9212 21.0826 21.1095 20.6654 21.3489L19.5958 20.2793L19.4819 20.1764C18.8927 19.6958 18.0236 19.7302 17.4745 20.2793C16.8887 20.8651 16.8887 21.8149 17.4745 22.4007L18.5441 23.4703C18.3046 23.8875 18.1163 24.3377 17.9876 24.8125H16.4764L16.3319 24.8194C15.5713 24.8921 14.9764 25.5328 14.9764 26.3125C14.9764 27.1409 15.6479 27.8125 16.4764 27.8125H17.9876C18.1163 28.2871 18.3045 28.7371 18.5437 29.1542L17.475 30.222L17.3719 30.3358C16.8911 30.9248 16.925 31.7939 17.474 32.3433C18.0595 32.9293 19.0092 32.9298 19.5953 32.3443L20.6648 31.2757C21.0822 31.5153 21.5326 31.7037 22.0076 31.8325V33.3438L22.0145 33.4882C22.0872 34.2489 22.7279 34.8438 23.5076 34.8438C24.336 34.8438 25.0076 34.1722 25.0076 33.3438V31.8325C25.4826 31.7037 25.9331 31.5153 26.3504 31.2757L27.42 32.3443L27.5339 32.4472C28.1233 32.9275 28.9924 32.8927 29.5413 32.3433C30.1268 31.7572 30.1263 30.8075 29.5403 30.222L28.4715 29.1542C28.7108 28.7371 28.899 28.2871 29.0276 27.8125H30.5389L30.6833 27.8056C31.444 27.7329 32.0389 27.0922 32.0389 26.3125C32.0389 25.4841 31.3673 24.8125 30.5389 24.8125H29.0276C28.8989 24.3377 28.7106 23.8875 28.4712 23.4703L29.5408 22.4007L29.6438 22.2867C30.1243 21.6976 30.09 20.8285 29.5408 20.2793C28.955 19.6936 28.0052 19.6936 27.4195 20.2793L26.3499 21.3489C25.9327 21.1095 25.4824 20.9212 25.0076 20.7925ZM23.5076 23.5938C22.0061 23.5938 20.7889 24.811 20.7889 26.3125C20.7889 27.814 22.0061 29.0312 23.5076 29.0312C25.0091 29.0312 26.2264 27.814 26.2264 26.3125C26.2264 24.811 25.0091 23.5938 23.5076 23.5938Z" fill="white"/>
</svg>
