<svg width="54" height="47" viewBox="0 0 54 47" fill="none" xmlns="http://www.w3.org/2000/svg">
<path fill-rule="evenodd" clip-rule="evenodd" d="M42 0C42.8284 0 43.5 0.671573 43.5 1.5C43.5 2.2797 42.9051 2.92045 42.1445 2.99313L42 3H4.875C3.88878 3 3.08039 3.76142 3.00564 4.72847L3 4.875V10.125H30.1875C31.0159 10.125 31.6875 10.7966 31.6875 11.625C31.6875 12.4047 31.0926 13.0454 30.332 13.1181L30.1875 13.125H3V42C3 42.9862 3.76142 43.7946 4.72847 43.8694L4.875 43.875H45.375C46.3612 43.875 47.1696 43.1136 47.2444 42.1465L47.25 42V21.75C47.25 20.9216 47.9216 20.25 48.75 20.25C49.5297 20.25 50.1704 20.8449 50.2431 21.6055L50.25 21.75V42C50.25 44.6196 48.1838 46.7566 45.5922 46.8703L45.375 46.875H4.875C2.25538 46.875 0.118351 44.8088 0.00474991 42.2172L0 42V11.625V4.875C0 2.25538 2.06623 0.118351 4.65785 0.00474991L4.875 0H42ZM48.5419 3.37506C47.1971 3.37506 45.9074 3.90974 44.9571 4.86129L32.0811 17.7373C31.8718 17.9467 31.7291 18.2133 31.6709 18.5035L30.4042 24.8305C30.1941 25.8801 31.1192 26.8056 32.1689 26.5959L38.4981 25.3314C38.7886 25.2734 39.0554 25.1306 39.2649 24.9212L52.1417 12.0444L52.3111 11.8665C54.0634 9.9358 54.0634 6.98272 52.3118 5.0528L52.1266 4.86129C51.1763 3.90974 49.8867 3.37506 48.5419 3.37506ZM48.7237 6.38307C49.1453 6.4203 49.5455 6.58622 49.8697 6.85821L50.0255 7.0005L50.1346 7.1196C50.8255 7.93369 50.7871 9.1551 50.0195 9.92393L37.4645 22.4785L33.7875 23.2125L34.5235 19.5365L47.0792 6.98191C47.4674 6.59313 47.9934 6.37506 48.5419 6.37506L48.7237 6.38307ZM21.75 23.625C22.5784 23.625 23.25 24.2966 23.25 25.125C23.25 25.9047 22.6551 26.5454 21.8945 26.6181L21.75 26.625H11.625C10.7966 26.625 10.125 25.9534 10.125 25.125C10.125 24.3453 10.7199 23.7046 11.4805 23.6319L11.625 23.625H21.75ZM35.0625 35.25C35.0625 34.4216 34.3909 33.75 33.5625 33.75H11.625L11.4805 33.7569C10.7199 33.8296 10.125 34.4703 10.125 35.25C10.125 36.0784 10.7966 36.75 11.625 36.75H33.5625L33.707 36.7431C34.4676 36.6704 35.0625 36.0297 35.0625 35.25Z" fill="url(#paint0_linear)"/>
<defs>
<linearGradient id="paint0_linear" x1="0.487665" y1="32.1604" x2="41.5233" y2="55.8009" gradientUnits="userSpaceOnUse">
<stop stop-color="#543FED"/>
<stop offset="1" stop-color="#462AC8"/>
</linearGradient>
</defs>
</svg>

