<svg width="48" height="48" viewBox="0 0 48 48" fill="none" xmlns="http://www.w3.org/2000/svg">
<path fill-rule="evenodd" clip-rule="evenodd" d="M24 0C24.7797 0 25.4204 0.594888 25.4931 1.35554L25.5 1.5V3H27C27.8284 3 28.5 3.67157 28.5 4.5C28.5 5.2797 27.9051 5.92045 27.1445 5.99313L27 6H25.5V7.5C25.5 8.32843 24.8284 9 24 9C23.2203 9 22.5796 8.40511 22.5069 7.64446L22.5 7.5V6H21C20.1716 6 19.5 5.32843 19.5 4.5C19.5 3.7203 20.0949 3.07955 20.8555 3.00687L21 3H22.5V1.5C22.5 0.671573 23.1716 0 24 0ZM44.9931 8.85554C44.9204 8.09489 44.2797 7.5 43.5 7.5C42.6716 7.5 42 8.17157 42 9V10.5H40.5L40.3555 10.5069C39.5949 10.5796 39 11.2203 39 12C39 12.8284 39.6716 13.5 40.5 13.5H42V15L42.0069 15.1445C42.0796 15.9051 42.7203 16.5 43.5 16.5C44.3284 16.5 45 15.8284 45 15V13.5H46.5L46.6445 13.4931C47.4051 13.4204 48 12.7797 48 12C48 11.1716 47.3284 10.5 46.5 10.5H45V9L44.9931 8.85554ZM37.4552 13.1362C37.2543 12.3325 36.4399 11.8439 35.6362 12.0448C32.8452 12.7425 30.7022 14.5507 29.1297 17.0779C28.4342 18.1958 27.896 19.3829 27.4917 20.5694C27.3016 21.1274 27.1697 21.5955 27.0876 21.9408L27.0291 22.2058C26.8667 23.0182 27.3935 23.8084 28.2058 23.9709C29.0182 24.1333 29.8084 23.6065 29.9709 22.7942L29.9893 22.7106L30.1055 22.2621C30.1685 22.0378 30.2435 21.7948 30.3314 21.537C30.6665 20.5534 31.1121 19.5704 31.6769 18.6628C32.8698 16.7456 34.4141 15.4426 36.3638 14.9552C37.1675 14.7543 37.6561 13.9399 37.4552 13.1362ZM7.27392e-07 33.75C7.27392e-07 30.0221 3.02208 27 6.75 27C10.4779 27 13.5 30.0221 13.5 33.75C13.5 36.223 12.1701 38.3853 10.1865 39.5609C12.2872 40.2705 14.0921 41.6086 15.3774 43.3621C16.6782 41.5921 18.4945 40.266 20.5679 39.5636C18.5818 38.3885 17.25 36.2248 17.25 33.75C17.25 30.0221 20.2721 27 24 27C27.7279 27 30.75 30.0221 30.75 33.75C30.75 36.2248 29.4182 38.3885 27.4321 39.5636C29.5059 40.2662 31.3225 41.5927 32.6234 43.3632C33.9084 41.6093 35.7132 40.271 37.8138 39.5611C35.83 38.3856 34.5 36.2231 34.5 33.75C34.5 30.0221 37.5221 27 41.25 27C44.9779 27 48 30.0221 48 33.75C48 36.2293 46.6633 38.3964 44.6713 39.57C45.6182 39.8926 46.5251 40.3504 47.3623 40.9387C48.0402 41.4149 48.2036 42.3505 47.7273 43.0283C47.2511 43.7062 46.3155 43.8696 45.6377 43.3933C43.6894 42.0245 41.2158 41.6384 38.943 42.3484C36.673 43.0575 34.8607 44.7796 34.0366 47.0101C34.0309 47.0258 34.025 47.0415 34.0188 47.057C33.9411 47.2515 33.8269 47.4211 33.687 47.5608C33.5032 47.7444 33.2751 47.8764 33.0273 47.9454C32.7346 48.0269 32.4146 48.0206 32.1077 47.9076C32.0948 47.9028 32.0818 47.8979 32.069 47.8928C31.8754 47.8154 31.7064 47.7019 31.567 47.5629C31.427 47.4235 31.3126 47.2543 31.2345 47.0603C31.2283 47.0446 31.2222 47.0289 31.2165 47.0131C30.0946 43.9987 27.217 41.9988 24 41.9988C20.8035 41.9988 17.942 43.9733 16.8052 46.9556C16.6693 47.3809 16.3458 47.7413 15.8945 47.9075C15.7225 47.9709 15.5465 48.0007 15.3734 48.0004C15.2003 48.0004 15.0243 47.9701 14.8525 47.9064C14.4015 47.7392 14.0788 47.378 13.9438 46.9525C13.1095 44.7499 11.3085 43.0513 9.05788 42.3484C6.78479 41.6384 4.31087 42.0245 2.36225 43.3934C1.68437 43.8696 0.748796 43.7061 0.272591 43.0282C-0.203613 42.3504 -0.0401235 41.4148 0.637756 40.9386C1.47499 40.3504 2.38194 39.8927 3.32883 39.57C1.33674 38.3965 7.27392e-07 36.2293 7.27392e-07 33.75ZM10.5 33.75C10.5 31.6789 8.82107 30 6.75 30C4.67893 30 3 31.6789 3 33.75C3 35.8211 4.67893 37.5 6.75 37.5C8.82107 37.5 10.5 35.8211 10.5 33.75ZM45 33.75C45 31.6789 43.3211 30 41.25 30C39.1789 30 37.5 31.6789 37.5 33.75C37.5 35.8211 39.1789 37.5 41.25 37.5C43.3211 37.5 45 35.8211 45 33.75ZM24 30C26.0711 30 27.75 31.6789 27.75 33.75C27.75 35.8211 26.0711 37.5 24 37.5C21.9289 37.5 20.25 35.8211 20.25 33.75C20.25 31.6789 21.9289 30 24 30ZM10.5448 13.1362C10.7457 12.3325 11.5601 11.8439 12.3638 12.0448C15.1548 12.7425 17.2978 14.5507 18.8703 17.0779C19.5658 18.1958 20.104 19.3829 20.5083 20.5694C20.7528 21.2869 20.9008 21.8557 20.9709 22.2058C21.1333 23.0182 20.6065 23.8084 19.7942 23.9709C19.0296 24.1238 18.2846 23.6661 18.0642 22.9345L17.9535 22.48C17.8802 22.1981 17.7857 21.8807 17.6686 21.537C17.3335 20.5534 16.8879 19.5704 16.3231 18.6628C15.1302 16.7456 13.5859 15.4426 11.6362 14.9552C10.8325 14.7543 10.3439 13.9399 10.5448 13.1362ZM9 12C9 11.1716 8.32843 10.5 7.5 10.5H6V9L5.99313 8.85554C5.92045 8.09489 5.2797 7.5 4.5 7.5C3.67157 7.5 3 8.17157 3 9V10.5H1.5L1.35554 10.5069C0.594889 10.5796 7.27392e-07 11.2203 7.27392e-07 12C7.27392e-07 12.8284 0.671574 13.5 1.5 13.5H3V15L3.00687 15.1445C3.07955 15.9051 3.7203 16.5 4.5 16.5C5.32843 16.5 6 15.8284 6 15V13.5H7.5L7.64446 13.4931C8.40511 13.4204 9 12.7797 9 12ZM25.4931 13.3555C25.4204 12.5949 24.7797 12 24 12C23.1716 12 22.5 12.6716 22.5 13.5V22.5L22.5069 22.6445C22.5796 23.4051 23.2203 24 24 24C24.8284 24 25.5 23.3284 25.5 22.5V13.5L25.4931 13.3555Z" fill="url(#paint0_linear)"/>
<defs>
<linearGradient id="paint0_linear" x1="0.436384" y1="32.9326" x2="39.4617" y2="52.5847" gradientUnits="userSpaceOnUse">
<stop stop-color="#543FED"/>
<stop offset="1" stop-color="#462AC8"/>
</linearGradient>
</defs>
</svg>

