<svg width="21" height="21" viewBox="0 0 21 21" fill="none" xmlns="http://www.w3.org/2000/svg">
<path fill-rule="evenodd" clip-rule="evenodd" d="M15.1429 1.97639C11.5864 0.0359768 7.19878 0.509322 4.13803 3.1636C1.07728 5.81788 -0.0122865 10.0944 1.40525 13.8896C2.54105 16.9306 5.09485 19.1497 8.14913 19.9106L8.16489 19.9146L8.17753 19.9176C8.92645 20.1018 9.70524 20.1983 10.5004 20.1979C10.9575 20.1979 11.4138 20.1666 11.8656 20.1042C12.2987 20.0443 12.6012 19.6446 12.5414 19.2115C12.4815 18.7784 12.0818 18.4759 11.6487 18.5358C11.2689 18.5883 10.8851 18.6146 10.5 18.6146C9.9359 18.6149 9.38166 18.5569 8.84415 18.4453C8.37378 17.6714 7.97992 16.6431 7.68926 15.4479H9.31172L9.40404 15.4426C9.79777 15.3969 10.1034 15.0622 10.1034 14.6563C10.1034 14.219 9.74894 13.8646 9.31172 13.8646H7.38028C7.22998 12.8705 7.14456 11.8025 7.13542 10.6979H9.90546L9.99778 10.6926C10.3915 10.6469 10.6971 10.3122 10.6971 9.90625C10.6971 9.46903 10.3427 9.11459 9.90546 9.11459H7.17503C7.24115 7.98955 7.38656 6.91967 7.59817 5.94792H13.4002C13.614 6.92871 13.7607 8.01084 13.8257 9.15036C13.5037 9.25078 13.27 9.55122 13.27 9.90625C13.27 10.3435 13.6245 10.6979 14.0617 10.6979H14.6128C14.6312 10.6988 14.6499 10.6989 14.6686 10.6985L14.6848 10.6979H18.6132C18.6052 11.0132 18.5787 11.3303 18.5331 11.6479C18.471 12.0807 18.7715 12.4819 19.2043 12.544C19.6371 12.6061 20.0383 12.3056 20.1004 11.8728C20.1893 11.2535 20.2173 10.6357 20.188 10.0266C20.194 9.98734 20.1971 9.94717 20.1971 9.90625C20.1971 9.82904 20.1861 9.75442 20.1654 9.68387C19.8974 6.4821 18.0468 3.56077 15.1429 1.97639ZM15.4095 9.11459C15.3487 8.0042 15.2153 6.93812 15.0177 5.94792H17.2235C17.8647 6.89737 18.3015 7.97676 18.4978 9.11459H15.4095ZM14.2667 3.30328C14.3969 3.63955 14.5174 3.99407 14.6278 4.36459H15.8215C15.386 3.98621 14.9055 3.65055 14.3845 3.3663C14.3454 3.34494 14.3061 3.32394 14.2667 3.30328ZM12.9676 4.36459C12.7316 3.66314 12.4557 3.04799 12.1483 2.54389C11.0561 2.31693 9.93345 2.31898 8.85175 2.54234C8.54263 3.04847 8.2664 3.66409 8.03057 4.36459H12.9676ZM5.77999 13.8646C5.63884 12.8577 5.56048 11.7925 5.55204 10.6979H2.37736C2.3994 11.5834 2.5668 12.4743 2.8885 13.3356C2.95566 13.5155 3.02875 13.6918 3.10748 13.8646H5.77999ZM4.06052 15.4479C4.78023 16.3827 5.69286 17.1456 6.72858 17.6882C6.46618 17.0089 6.24318 16.2559 6.06415 15.4479H4.06052ZM5.16985 4.36459H6.37088C6.48186 3.99204 6.6032 3.63553 6.73433 3.29734C6.18314 3.58543 5.65942 3.94002 5.17537 4.35979L5.16985 4.36459ZM5.98091 5.94792H3.76683C3.11875 6.90705 2.68767 7.98833 2.49327 9.11459H5.58899C5.64982 8.00529 5.78311 6.93905 5.98091 5.94792ZM10.7643 12.3834C10.5698 11.92 10.675 11.3849 11.0303 11.0296C11.3857 10.6742 11.9207 10.5691 12.4073 10.7737L19.5569 14.0488C19.9899 14.2821 20.2399 14.7532 20.1904 15.2426C20.1408 15.7321 19.8014 16.1435 19.3717 16.2715L17.0953 17.0954L16.2486 19.4358C16.0945 19.8165 15.7579 20.0942 15.3549 20.1731L15.2434 20.1896C14.754 20.2392 14.2828 19.9892 14.0267 19.5102L10.7643 12.3834ZM18.0105 15.0806L12.6074 12.6058L15.0798 18.0106L15.7334 16.2076C15.802 16.0182 15.9396 15.8634 16.1167 15.7726L16.2084 15.7327L18.0105 15.0806Z" fill="#462AC8"/>
</svg>
