<svg width="46" height="46" viewBox="0 0 46 46" fill="none" xmlns="http://www.w3.org/2000/svg">
<path fill-rule="evenodd" clip-rule="evenodd" d="M40.6875 0H4.5C2.01472 0 0 2.01472 0 4.5V32.25C0 34.7353 2.01472 36.75 4.5 36.75H16.6043L15.6981 42.1875H12.75L12.6055 42.1944C11.8449 42.2671 11.25 42.9078 11.25 43.6875C11.25 44.5159 11.9216 45.1875 12.75 45.1875H16.9688H28.2188H32.4375L32.582 45.1806C33.3426 45.1079 33.9375 44.4672 33.9375 43.6875C33.9375 42.8591 33.2659 42.1875 32.4375 42.1875H29.4894L28.5832 36.75H40.6875C43.1728 36.75 45.1875 34.7353 45.1875 32.25V4.5C45.1875 2.01472 43.1728 0 40.6875 0ZM26.8125 33.75H18.375H4.5C3.67157 33.75 3 33.0784 3 32.25V4.5C3 3.67157 3.67157 3 4.5 3H40.6875C41.5159 3 42.1875 3.67157 42.1875 4.5V32.25C42.1875 33.0784 41.5159 33.75 40.6875 33.75H26.8125ZM18.7388 42.1871L19.6446 36.75H25.5419L26.4478 42.1871H18.7388ZM5.625 18.375C5.625 12.8867 10.0742 8.4375 15.5625 8.4375C21.0508 8.4375 25.5 12.8867 25.5 18.375C25.5 21.1188 24.388 23.6029 22.5901 25.4011L22.5894 25.4019L22.5797 25.4115C20.7821 27.2042 18.3018 28.3125 15.5625 28.3125C10.0742 28.3125 5.625 23.8633 5.625 18.375ZM8.625 18.375C8.625 15.0586 10.9521 12.2856 14.0625 11.6001V18.375L14.0698 18.5233C14.1039 18.8666 14.2557 19.1895 14.5018 19.4357L19.292 24.2258C18.2149 24.9138 16.9353 25.3125 15.5625 25.3125C11.731 25.3125 8.625 22.2065 8.625 18.375ZM17.0618 17.7531L21.4133 22.1045C22.1013 21.0275 22.5 19.7478 22.5 18.375C22.5 15.0585 20.1728 12.2856 17.0623 11.6001L17.0618 17.7531ZM36.75 12.75C36.75 11.9216 36.0784 11.25 35.25 11.25H29.625L29.4805 11.2569C28.7199 11.3296 28.125 11.9703 28.125 12.75C28.125 13.5784 28.7966 14.25 29.625 14.25H35.25L35.3945 14.2431C36.1551 14.1704 36.75 13.5297 36.75 12.75ZM35.25 16.875C36.0784 16.875 36.75 17.5466 36.75 18.375C36.75 19.1547 36.1551 19.7954 35.3945 19.8681L35.25 19.875H29.625C28.7966 19.875 28.125 19.2034 28.125 18.375C28.125 17.5953 28.7199 16.9546 29.4805 16.8819L29.625 16.875H35.25ZM36.75 24C36.75 23.1716 36.0784 22.5 35.25 22.5H29.625L29.4805 22.5069C28.7199 22.5796 28.125 23.2203 28.125 24C28.125 24.8284 28.7966 25.5 29.625 25.5H35.25L35.3945 25.4931C36.1551 25.4204 36.75 24.7797 36.75 24Z" fill="url(#paint0_linear)"/>
<defs>
<linearGradient id="paint0_linear" x1="0.410932" y1="31.0027" x2="37.1494" y2="49.5032" gradientUnits="userSpaceOnUse">
<stop stop-color="#543FED"/>
<stop offset="1" stop-color="#462AC8"/>
</linearGradient>
</defs>
</svg>
